<?xml version="1.0" encoding="utf-8"?>
<!-- Generator: Adobe Illustrator 23.0.1, SVG Export Plug-In . SVG Version: 6.00 Build 0)  -->
<svg version="1.1" id="Layer_1" xmlns="http://www.w3.org/2000/svg" xmlns:xlink="http://www.w3.org/1999/xlink" x="0px" y="0px"
	 viewBox="0 0 841.89 479.27" style="enable-background:new 0 0 841.89 479.27;" xml:space="preserve">
<style type="text/css">
	.st0{fill:#FF6A9A;}
</style>
<g>
	<g>
		<path d="M404.2,165.32h17.1l4.15,14.19h11.48l-15.47-49.11c-0.55-2.03-2.07-3.15-4.26-3.15h-8.88c-2.2,0-3.71,1.12-4.25,3.12
			l-15.48,49.14h11.48L404.2,165.32z M412.97,136.21c0.15,0.6,0.42,1.66,0.91,3.56l4.64,16.01h-11.54l4.65-16.03l0.96-3.54H412.97z"
			/>
		<path d="M469.22,180.38c6.33,0,11.62-0.65,15.73-1.94l0.81-0.25l-1.02-8.72l-1.03,0.14c-3.52,0.48-8.4,0.72-14.49,0.72
			c-3.82,0-6.33-1.09-7.67-3.32c-1.42-2.37-2.15-6.96-2.15-13.63c0-6.67,0.72-11.26,2.15-13.63c1.34-2.24,3.85-3.32,7.67-3.32
			c4.75,0,9.28,0.17,13.45,0.51l0.97,0.08l1.11-8.77l-0.87-0.23c-4.1-1.09-9.03-1.64-14.67-1.64c-7.82,0-13.42,2.09-16.67,6.21
			c-3.23,4.11-4.8,10.91-4.8,20.79s1.57,16.69,4.8,20.79C455.8,178.29,461.41,180.38,469.22,180.38z"/>
		<path d="M520.24,180.45c8.05,0,13.76-2.01,16.99-5.98c3.21-3.96,4.78-10.86,4.78-21.09c0-10.23-1.56-17.13-4.78-21.09
			c-3.22-3.97-8.94-5.98-16.99-5.98c-8,0-13.69,2.01-16.91,5.98c-3.21,3.96-4.78,10.86-4.78,21.09c0,10.24,1.56,17.14,4.78,21.09
			C506.54,178.44,512.23,180.45,520.24,180.45z M512.42,139.54c1.39-2.29,3.95-3.4,7.82-3.4c3.92,0,6.5,1.11,7.89,3.4
			c1.47,2.42,2.22,7.08,2.22,13.84c0,6.76-0.75,11.42-2.22,13.84c-1.39,2.29-3.97,3.4-7.89,3.4c-3.87,0-6.43-1.11-7.82-3.4
			c-1.47-2.42-2.22-7.07-2.22-13.84C510.2,146.61,510.95,141.96,512.42,139.54z"/>
		<polygon points="596.13,190.5 604.44,190.5 604.44,170.4 598.33,170.4 598.33,127.25 587.11,127.25 587.11,170.4 570.09,170.4 
			570.09,127.25 558.95,127.25 558.95,179.51 595.4,179.51 		"/>
		<rect x="619.57" y="127.25" width="11.14" height="52.26"/>
		<path d="M672.33,127.25h-8.88c-2.2,0-3.71,1.12-4.25,3.12l-15.48,49.14h11.48l4.15-14.19h17.1l4.15,14.19h11.48L676.6,130.4
			C676.04,128.37,674.52,127.25,672.33,127.25z M668.11,136.21c0.15,0.6,0.42,1.66,0.91,3.56l4.64,16.01h-11.54l4.65-16.03
			l0.96-3.54H668.11z"/>
		<polygon points="750.64,170.4 744.53,170.4 744.53,127.25 733.31,127.25 733.31,170.4 716.29,170.4 716.29,127.25 705.15,127.25 
			705.15,179.51 741.6,179.51 742.33,190.5 750.64,190.5 		"/>
		<rect x="765.77" y="127.25" width="11.14" height="52.26"/>
		<path d="M830.79,127.25c-4.32-0.44-10.48-0.66-18.3-0.66c-6.38,0-10.86,1.19-13.69,3.63c-2.84,2.45-4.29,6.51-4.29,12.08
			c-0.05,4.27,0.73,7.61,2.33,9.91c1.18,1.71,2.93,2.94,5.2,3.67c-2.61,1.3-4.36,3.64-5.24,6.98l-4.58,16.65h11.74l4.05-15.81
			c0.75-2.62,2.29-3.84,4.85-3.84l7.63-0.06v19.71h11.22v-52.16L830.79,127.25z M820.49,136.13v14.18h-7.78
			c-2.7,0-4.56-0.54-5.54-1.6c-1-1.08-1.51-3.04-1.51-5.8c0.05-3.44,0.81-4.87,1.43-5.46c0.63-0.6,2.11-1.32,5.62-1.32H820.49z"/>
		<g>
			<path d="M444.44,219.1c-0.18-2.92-1.83-4.53-4.66-4.53h-9.31c-2.52,0-4.2,1.32-4.85,3.82l-7.14,27.18
				c-0.08,0.35-0.43,1.92-1.04,4.7c-0.35-1.77-0.7-3.34-1.05-4.66l-7.2-27.19c-0.6-2.51-2.23-3.84-4.71-3.84h-9.39
				c-2.84,0-4.47,1.61-4.59,4.55l-1.93,47.71h10.93l1.47-41.29l8.12,31.07c0.65,2.5,2.35,3.82,4.92,3.82h6.91
				c2.52,0,4.19-1.32,4.85-3.82l8.06-31.09l1.68,41.31h10.93L444.44,219.1z"/>
			<path d="M501.02,261.8c3.21-3.96,4.78-10.86,4.78-21.09c0-10.23-1.56-17.13-4.78-21.09c-3.22-3.97-8.94-5.98-16.99-5.98
				c-8,0-13.69,2.01-16.91,5.98c-3.22,3.96-4.78,10.86-4.78,21.09c0,10.23,1.56,17.14,4.78,21.09c3.22,3.97,8.91,5.98,16.91,5.98
				C492.08,267.78,497.8,265.77,501.02,261.8z M491.92,254.55c-1.39,2.29-3.97,3.4-7.89,3.4c-3.87,0-6.43-1.11-7.82-3.4
				c-1.47-2.42-2.22-7.08-2.22-13.84c0-6.77,0.75-11.42,2.22-13.84c1.39-2.29,3.95-3.4,7.82-3.4c3.92,0,6.5,1.11,7.89,3.4
				c1.47,2.42,2.22,7.08,2.22,13.84C494.14,247.47,493.39,252.13,491.92,254.55z"/>
			<path d="M529,225.79c-0.93,13.11-3.09,23.86-6.43,31.94h-5.51v20.09h8.31l0.8-10.99h32.59l0.8,10.99h8.31v-20.09h-6.4v-43.16
				h-20.02c-3.64,0-6.61,1.02-8.8,3.03C530.44,219.63,529.21,222.39,529,225.79z M533.52,257.73c1.68-3.78,2.99-7.86,3.87-12.16
				c1-4.83,1.8-10.94,2.38-18.2c0.1-1.84,0.54-2.62,0.89-2.96c0.5-0.48,1.47-0.73,2.82-0.73h6.84v34.05H533.52z"/>
			<path d="M617.33,266.31l-0.47-8.87h-20.69c-0.68,0-1.58-0.1-1.99-0.59c-0.21-0.25-0.56-0.91-0.56-2.61v-10.18h20.52v-9.03h-20.52
				v-7.78c0-1.7,0.35-2.37,0.56-2.61c0.41-0.48,1.31-0.58,1.99-0.58h20.69l0.46-8.94l-0.98-0.09c-4.44-0.39-11.91-0.59-22.21-0.59
				c-3.54,0-6.39,0.94-8.47,2.81c-2.11,1.89-3.18,4.5-3.18,7.75v31.44c0,3.25,1.07,5.85,3.18,7.75c2.08,1.86,4.93,2.81,8.47,2.81
				c10.32,0,17.79-0.2,22.21-0.59L617.33,266.31z"/>
			<path d="M640.05,225.71c-0.58,7.87-1.16,13.76-1.74,17.49c-0.57,3.67-1.41,6.92-2.49,9.65c-0.55,1.45-1.34,2.56-2.34,3.29
				c-1.05,0.77-2.44,1.36-4.14,1.76l-0.87,0.21l0.91,8.8l0.85,0.07c0.54,0.05,1.07,0.07,1.59,0.07c6.68,0,11.55-3.71,14.5-11.03
				c1.24-3.02,2.17-6.54,2.76-10.46c0.58-3.84,1.22-9.97,1.9-18.21c0.24-2.53,1.43-3.66,3.86-3.66h6.76v43.16h11.22v-52.26h-20.53
				C644.91,214.58,640.68,218.42,640.05,225.71z"/>
			<path d="M702.79,266.98c10.32,0,17.79-0.2,22.21-0.59l0.98-0.09l-0.47-8.87h-20.69c-0.68,0-1.58-0.1-1.99-0.59
				c-0.21-0.25-0.56-0.91-0.56-2.61v-10.18h20.52v-9.03h-20.52v-7.78c0-1.7,0.35-2.37,0.56-2.61c0.41-0.48,1.31-0.58,1.99-0.58
				h20.69l0.46-8.94l-0.98-0.09c-4.44-0.39-11.91-0.59-22.21-0.59c-3.54,0-6.39,0.94-8.47,2.81c-2.11,1.89-3.18,4.5-3.18,7.75v31.44
				c0,3.25,1.07,5.85,3.18,7.75C696.39,266.04,699.24,266.98,702.79,266.98z"/>
			<path d="M763.55,212.91c3.95,0,7.11-1.14,9.41-3.38c2.33-2.28,3.35-5.12,3.03-8.44l-0.09-0.92h-8.24l0.03,1.05
				c0.04,1.88-0.33,3.25-1.12,4.05c-0.66,0.68-1.66,1.01-3.03,1.01c-1.44,0-2.48-0.34-3.17-1.05c-0.79-0.81-1.16-2.16-1.12-4.01
				l0.03-1.05h-8.22l-0.1,0.91c-0.38,3.33,0.65,6.18,3.04,8.46C756.35,211.78,759.56,212.91,763.55,212.91z"/>
			<path d="M753.93,248.07c-0.28,0.51-0.55,1.01-0.8,1.5c0.02-0.49,0.03-1,0.03-1.51v-33.48h-10.78v52.26h10.86l19.28-33.61
				c0.24-0.4,0.49-0.85,0.73-1.33c-0.01,0.35-0.02,0.69-0.02,1.03v33.92h10.85v-52.26h-10.93L753.93,248.07z"/>
		</g>
		<path d="M411.8,330.29h-1.66c-0.2,0-0.27-0.04-0.27-0.04l-9.25-28.34h-11.49l11.38,32.93c1.05,3.22,3.4,4.92,6.79,4.92h1.16
			l-0.15,0.42c-0.43,1.09-0.77,1.92-1.03,2.49c-0.21,0.45-0.53,0.88-0.96,1.27c-0.59,0.53-0.94,0.77-1.14,0.88
			c-0.06,0.03-0.43,0.2-1.72,0.32c-0.99,0.09-1.88,0.12-2.64,0.07c-0.83-0.05-2.19-0.12-4.08-0.22l-0.92-0.05l-1.3,8.45l0.89,0.24
			c2.99,0.8,5.93,1.2,8.79,1.2c0.71,0,1.42-0.03,2.13-0.07c3.37-0.32,6.09-1.69,8.08-4.08c1.89-2.26,3.6-5.6,5.09-9.93l13.35-38.83
			h-11.56L411.8,330.29z"/>
		<path d="M484.02,348.52c-2.82-8.46-5.11-14.02-7.02-17c-1.4-2.19-3.41-3.75-5.99-4.65c3.07-1.24,5.62-3.98,7.57-8.13
			c1-1.99,2.83-7.06,5.59-15.49l0.44-1.34h-11.45l-0.2,0.77c-0.05,0.19-0.12,0.44-0.2,0.74c-0.78,2.42-1.52,4.71-2.25,6.86
			c-0.71,2.11-1.43,3.93-2.14,5.42c-0.69,1.45-1.47,2.74-2.32,3.81c-0.79,1.01-1.72,1.77-2.76,2.25c-1.05,0.49-2.26,0.74-3.6,0.74
			h-3.04c0.23-1.77,0.35-3.38,0.35-4.8v-15.8h-11.14v52.26H457v-18.71c0-1.11-0.11-2.43-0.33-3.93h3.02c1.06,0,2,0.11,2.78,0.33
			c2.27,0.64,4.24,2.57,5.83,5.71c0.94,1.99,2.86,7.33,5.7,15.89l0.23,0.7h11.69l-0.45-1.35
			C485.14,351.8,484.65,350.37,484.02,348.52z"/>
		<path d="M519.58,301.25c-7.82,0-13.98,0.22-18.3,0.66l-0.92,0.09v52.16h11.21v-19.02c2.89,0.31,5.95,0.46,9.09,0.46
			c6.4,0,10.76-1.2,13.34-3.67c2.59-2.48,3.84-6.9,3.84-13.51c0-6.62-1.32-11.05-4.04-13.53
			C531.12,302.45,526.46,301.25,519.58,301.25z M526.64,318.43c0,3.86-0.79,5.48-1.46,6.16c-0.96,0.98-2.93,1.5-5.82,1.55h-7.78
			v-15.35h7.78c2.86,0,4.87,0.51,5.82,1.48C525.85,312.95,526.64,314.57,526.64,318.43z"/>
		<path d="M573.95,301.91h-8.88c-2.19,0-3.71,1.12-4.25,3.12l-15.48,49.14h11.48l4.15-14.19h17.1l4.15,14.19h11.48l-15.47-49.11
			C577.65,303.03,576.14,301.91,573.95,301.91z M569.72,310.86c0.26,1.02,0.69,2.7,0.91,3.56l4.64,16.01h-11.54l4.65-16.03
			l0.96-3.54H569.72z"/>
		<path d="M620.23,288.15h-2.84c-2.08,0-3.28,1.19-3.28,3.28v4c0,2.01,1.22,3.21,3.28,3.21h2.84c2.01,0,3.21-1.2,3.21-3.21v-4
			C623.44,289.38,622.24,288.15,620.23,288.15z"/>
		<rect x="606.69" y="301.91" width="11.14" height="52.26"/>
		<path d="M610.41,295.43v-4c0-2.05-1.2-3.28-3.21-3.28h-2.91c-1.96,0-3.13,1.22-3.13,3.28v4c0,2.01,1.17,3.21,3.13,3.21h2.91
			C609.21,298.64,610.41,297.44,610.41,295.43z"/>
		<polygon points="665.42,321.63 647.67,321.63 647.67,301.91 636.53,301.91 636.53,354.17 647.67,354.17 647.67,331.17 
			665.42,331.17 665.42,354.17 676.63,354.17 676.63,301.91 665.42,301.91 		"/>
		<path d="M706.95,335.4c-0.28,0.51-0.55,1.01-0.8,1.5c0.02-0.5,0.03-1,0.03-1.51v-33.48H695.4v52.26h10.86l19.28-33.61
			c0.24-0.4,0.49-0.85,0.73-1.33c-0.01,0.35-0.02,0.69-0.02,1.03v33.92h10.85v-52.26h-10.93L706.95,335.4z"/>
	</g>
	<g>
		<path class="st0" d="M168.4,110.16L168.4,110.16c1,0.42,2.04,0.63,3.1,0.63c1.08,0,2.17-0.22,3.23-0.65
			c6.62-2.72,9.14-11.06,9.29-17.36l0-0.23c0-0.08,0-0.17,0-0.22c-0.16-6.71-3.32-11.71-8.45-13.38c-5.22-1.7-11.03,0.47-13.82,5.16
			c-3.33,5.61-2.28,13.09-0.19,18.21C162.29,104.12,164.43,108.5,168.4,110.16z M171.38,86.81c1-0.11,1.78,0.08,2.41,0.63
			c1.07,0.94,1.76,2.9,1.81,5.08c-0.04,2.47-0.61,4.84-1.64,6.85c-1.45,2.85-2.42,3-2.4,3c-0.16-0.03-0.79-0.45-1.61-1.95
			c-0.98-1.79-1.6-4.01-1.79-6.44C168.06,92.87,167.8,87.23,171.38,86.81z"/>
		<path class="st0" d="M176.84,370.15c-2.16-1.58-4.58-2.13-7-1.59c-2.89,0.64-5.53,2.82-7.25,5.98
			c-3.15,5.77-3.89,12.95-1.87,18.27c1.82,4.8,6.19,7.9,11.15,7.9c0.5,0,1-0.03,1.49-0.09c7.63-0.94,10.51-8.05,10.65-13.83
			c0-0.08,0.01-0.16,0.01-0.24l0-0.21C183.89,380.95,181.94,373.87,176.84,370.15z M175.59,386.52c-0.04,2.22-0.73,4.18-1.81,5.12
			c-0.63,0.55-1.4,0.75-2.41,0.63c-3.57-0.42-3.31-6.06-3.22-7.19c0.19-2.42,0.81-4.65,1.79-6.44c0.83-1.51,1.44-1.92,1.55-1.95
			c0.1,0.01,0.97,0.19,2.36,2.81C174.95,381.57,175.55,384,175.59,386.52z"/>
		<path class="st0" d="M267.22,150.64c0.86,0.17,1.75,0.26,2.66,0.26c4.71,0,10.08-2.45,14.34-6.53c0.06-0.06,0.12-0.12,0.17-0.16
			c0.06-0.06,0.11-0.12,0.16-0.16c6.09-6.42,5.39-12.86,2.7-16.74c-3.5-5.05-9.9-6.56-15.56-3.69c-5.09,2.59-9.55,8.41-11.09,14.48
			c-0.83,3.25-0.45,6.46,1.03,8.81C262.88,148.87,264.81,150.16,267.22,150.64z M280.83,133.3c0.23,1.42-0.56,3.04-2.38,4.94
			c-2.69,2.6-6.85,4.86-9.59,4.14c-0.22-0.06-0.28-0.11-0.28-0.12c-0.32-0.79,0.32-3.28,1.79-5.74c1.34-2.23,4.35-6.02,7.17-6.02
			c0.43,0,0.84,0.09,1.25,0.26C279.8,131.21,280.66,132.27,280.83,133.3z"/>
		<path class="st0" d="M80.05,330.01c-1.96-1.69-4.64-2.43-7.54-2.1c-6.3,0.74-15.04,6.51-17.51,13.61
			c-1.54,4.42-0.54,8.57,2.87,11.98c2.2,2.2,4.93,3.36,7.91,3.36c3.6,0,7.45-1.68,10.54-4.6c0.06-0.06,0.13-0.12,0.16-0.15
			c0.07-0.06,0.13-0.13,0.17-0.18c4.24-4.43,6.67-10.03,6.51-14.99C83.08,334.13,81.97,331.67,80.05,330.01z M70.57,346.12
			c-1.86,1.79-3.45,2.58-4.83,2.42c-1.1-0.13-2.2-0.98-2.67-2.06c-0.35-0.8-0.63-2.1,0.92-4.22c1.54-2.1,3.89-3.63,4.84-4.19
			c1.85-1.1,3.99-1.86,5.22-1.86c0.3,0,0.46,0.05,0.53,0.07c0,0,0.05,0.06,0.11,0.28C75.4,339.3,73.14,343.46,70.57,346.12z"/>
		<path class="st0" d="M327.28,229.45c-5.61-3.33-13.09-2.29-18.21-0.2c-1.8,0.74-6.18,2.88-7.84,6.84
			c-0.85,2.03-0.84,4.22,0.03,6.33c2.72,6.61,11.05,9.14,17.33,9.29c0.07,0,0.15,0.01,0.23,0.01c0.02,0,0.04,0,0.06,0
			c0.07,0,0.14,0,0.18,0c6.71-0.16,11.71-3.32,13.38-8.45C334.14,238.04,331.97,232.23,327.28,229.45z M323.94,241.49
			c-0.94,1.07-2.9,1.77-5.08,1.81c-2.47-0.04-4.84-0.61-6.85-1.64c-2.84-1.45-3-2.41-3-2.41c0.03-0.16,0.46-0.78,1.95-1.6
			c1.79-0.98,4.01-1.6,6.44-1.79c0.22-0.02,0.6-0.04,1.08-0.04c2.14,0,5.78,0.42,6.11,3.26
			C324.69,240.09,324.49,240.86,323.94,241.49z"/>
		<path class="st0" d="M325.3,297.5c-6.22-3.89-11.78-10.07-16.52-18.36c-4.13-7.23-7.18-15.22-9.06-23.75
			c-0.01-0.09-0.04-0.2-0.07-0.33l-0.12-0.57c-0.09-0.43-0.19-0.85-0.27-1.28c-1.78-9.19-1.72-18.77,0.19-28.48
			c0.17-0.41,0.26-0.86,0.28-1.32c1.55-7.26,4.09-14.33,7.55-21.02c4.97-9.62,11.02-16.61,17.97-20.77c1.3-0.78,2.07-2.13,2.05-3.62
			c-0.02-1.36-1.02-3.77-1.95-4.76c-1.03-1.1-2.53-1.56-4.03-1.21c-7.03,1.62-15.18,1.22-24.22-1.19
			c-8.17-2.17-16.12-5.71-23.63-10.51c-0.11-0.08-0.23-0.15-0.38-0.24l-0.36-0.23c-0.13-0.08-0.26-0.16-0.4-0.25
			c-8.11-5.35-15.11-12.4-20.83-20.93c-0.16-0.33-0.35-0.63-0.58-0.89c-3.98-6.13-7.16-12.79-9.45-19.82
			c-3.42-10.5-4.13-19.86-2.13-27.84c0.28-1.12,0.12-2.26-0.47-3.22c-0.99-1.63-3.55-2.75-5.41-2.8c-1.49-0.04-2.88,0.7-3.68,1.98
			c-3.89,6.22-10.07,11.78-18.36,16.52c-7.23,4.13-15.22,7.18-23.76,9.06c-0.08,0.01-0.18,0.03-0.3,0.06l-0.56,0.12
			c-0.44,0.1-0.87,0.19-1.31,0.28c-9.2,1.78-18.79,1.72-28.51-0.2c-0.42-0.17-0.85-0.26-1.3-0.28c-7.25-1.55-14.32-4.09-21.02-7.55
			c-9.62-4.97-16.61-11.02-20.77-17.97c-0.91-1.52-2.84-2.48-4.59-1.93c-1.61,0.5-3.6,1.17-4.53,2.7c-0.58,0.95-0.75,2.1-0.47,3.22
			c1.79,7.15,1.39,15.46-1.19,24.73c-2.2,7.9-5.72,15.64-10.46,23.01c-0.21,0.25-0.38,0.52-0.52,0.8l-0.25,0.39
			c-0.14,0.22-0.28,0.44-0.42,0.65c-5.35,7.91-12.31,14.72-20.67,20.26c-0.18,0.1-0.35,0.21-0.46,0.29
			c-6.36,4.15-13.33,7.41-20.7,9.71c-10.24,3.19-19.42,3.89-27.29,2.07c-1.49-0.34-3,0.11-4.03,1.22c-1.1,1.18-1.93,3.16-1.95,4.76
			c-0.02,1.49,0.74,2.84,2.05,3.62c6.15,3.68,11.63,9.62,16.28,17.66c4.2,7.27,7.32,15.45,9.25,24.32c0.03,0.29,0.09,0.59,0.2,0.9
			c3.5,16.85,0.83,35.12-7.51,51.43c-5.06,9.9-11.2,17.15-18.26,21.57c-1.37,0.86-2.05,2.23-1.85,3.84c0.17,1.44,0.85,3.56,1.86,4.6
			c1.04,1.07,2.55,1.5,4.02,1.12c7.14-1.79,15.47-1.39,24.73,1.19c7.93,2.21,15.69,5.75,23.09,10.52c0.17,0.14,0.37,0.26,0.57,0.37
			l0.43,0.28c0.25,0.16,0.5,0.32,0.75,0.49c7.9,5.35,14.72,12.3,20.25,20.66c0.11,0.2,0.22,0.39,0.32,0.5
			c4.14,6.36,7.4,13.31,9.69,20.67c3.19,10.24,3.88,19.42,2.07,27.29c-0.26,1.12-0.06,2.27,0.55,3.22c1,1.56,3.67,2.77,5.49,2.77
			c1.46,0,2.79-0.77,3.56-2.05c3.68-6.15,9.62-11.62,17.66-16.28c7.27-4.21,15.46-7.32,24.33-9.26c0.31-0.03,0.61-0.09,0.9-0.2
			c16.85-3.49,35.1-0.82,51.41,7.51c9.9,5.06,17.15,11.2,21.57,18.26c1.94,3.1,7.25,2.02,9.02-0.76c0.61-0.96,0.81-2.1,0.55-3.22
			c-1.62-7.03-1.22-15.18,1.19-24.22c2.18-8.17,5.71-16.12,10.51-23.63c0.08-0.11,0.16-0.24,0.25-0.39l0.21-0.34
			c0.08-0.13,0.17-0.27,0.26-0.4c5.34-8.1,12.38-15.09,20.9-20.8c0.35-0.16,0.68-0.37,0.96-0.62c6.12-3.98,12.78-7.15,19.79-9.43
			c10.5-3.42,19.86-4.13,27.84-2.13c1.48,0.38,2.98-0.05,4.03-1.12c1.09-1.12,2.16-3.79,1.99-5.35
			C327.14,299.3,326.39,298.18,325.3,297.5z M290.02,247.52c-1.49-0.74-3.17-1.51-5.21-2.38c-3.75-1.6-9.39-3.62-15.06-2.8
			c-3.23,0.47-5.79,1.94-8.29,3.37c-0.51,0.29-1.02,0.58-1.54,0.87c-3.47,1.89-7.2,2.85-11.08,2.85h-0.15
			c-6.89-0.04-13.89-1.93-20.75-3.79c-1.79-0.48-3.64-0.98-5.45-1.44c-7.27-1.83-14.51-3.2-22.5-4.66
			c5.9-1.07,12.93-2.42,19.97-4.05c2.69-0.62,5.38-1.34,7.98-2.03c5.8-1.55,11.8-3.15,17.76-3.66c4.6-0.39,8.54,0.14,12.04,1.63
			c1.2,0.51,2.37,1.19,3.61,1.91c1.69,0.98,3.43,1.99,5.44,2.69c4.53,1.56,9.94,1.08,16.54-1.49c1.68-0.65,4.05-1.61,6.6-2.9
			C289.47,236.85,289.5,242.17,290.02,247.52z M82.21,233.38c0.52-0.29,1.03-0.59,1.56-0.88c3.47-1.89,7.22-2.85,11.15-2.85
			c0.03,0,0.05,0,0.08,0c6.88,0.04,13.88,1.93,20.75,3.79c1.79,0.48,3.64,0.98,5.45,1.44c7.27,1.83,14.51,3.2,22.5,4.66
			c-5.9,1.07-12.93,2.42-19.97,4.05c-2.64,0.61-5.3,1.32-7.87,2.01l-0.11,0.03c-5.8,1.55-11.79,3.15-17.76,3.66
			c-4.6,0.39-8.54-0.14-12.04-1.63c-1.2-0.51-2.36-1.19-3.62-1.91c-1.68-0.98-3.43-1.99-5.44-2.69c-1.72-0.59-3.57-0.89-5.57-0.89
			c-3.25,0-6.88,0.79-10.98,2.38c-1.68,0.65-4.04,1.61-6.58,2.89c0.5-5.22,0.49-10.53-0.01-15.83c1.48,0.74,3.16,1.5,5.13,2.34v0
			c3.75,1.6,9.39,3.62,15.06,2.8C77.17,236.27,79.73,234.8,82.21,233.38z M280.05,226.71c-3.28,1.22-7.48,2.45-10.92,1.13
			c-1.35-0.52-2.66-1.28-4.05-2.08c-1.42-0.82-2.88-1.67-4.52-2.34c-4.2-1.71-8.77-2.45-13.6-2.22c-7.34,0.36-14.43,2.24-21.32,4.08
			c-1.88,0.5-3.83,1.02-5.74,1.49c-7.03,1.74-14.28,3.11-21.7,4.47c-4,0.73-7.56,1.37-10.95,1.93c2.25-1.61,4.47-3.17,6.45-4.55
			c5.28-3.68,12.25-8.48,19.44-12.97c2.28-1.42,4.64-2.8,6.92-4.13c4.83-2.82,9.82-5.73,14.41-9.26c4.22-3.25,7.18-6.36,9.3-9.78
			c2.15-3.47,3.16-6.95,4.23-10.64l0.31-1.06c0.95-3.25,3.27-5.68,7.51-7.89c3.44-1.79,8.66-4.05,14.19-4.78
			c6.8,4.28,14.16,7.65,21.88,10.03c6.99,2.15,13.7,3.26,19.94,3.31c-12.38,12.18-17.87,29.48-20.12,39.27
			C288.76,222.94,285.04,224.85,280.05,226.71z M255.24,163.8L255.24,163.8c-3.52,1.46-8.58,3.9-11.92,8.15
			c-2.12,2.7-2.94,5.67-3.73,8.55c-0.18,0.66-0.37,1.35-0.57,2.01c-1.18,3.88-3.31,7.3-6.35,10.17c-4.86,4.6-10.94,8.1-16.83,11.49
			c-1.64,0.94-3.33,1.92-4.98,2.9c-6.4,3.83-12.46,7.96-19.11,12.56c3.41-4.92,7.42-10.84,11.24-16.96
			c1.44-2.31,2.82-4.69,4.15-6.99l0.06-0.1c2.91-5.02,5.91-10.21,9.58-14.68c2.94-3.59,6.03-6.06,9.44-7.57
			c1.36-0.6,2.85-1,4.43-1.43c2.02-0.54,4.11-1.1,6.14-2.14c4.08-2.08,7.41-6.09,10.18-12.24c1.13-2.52,2.05-4.85,2.79-7.07
			c3.35,4.04,7.11,7.78,11.22,11.16C258.72,162.38,256.69,163.2,255.24,163.8z M239.17,154.21c-1.42,3.04-3.46,6.71-6.66,8.2
			c-1.41,0.65-2.99,1.08-4.66,1.53c-1.76,0.47-3.58,0.97-5.37,1.77c-4.18,1.88-8,4.82-11.35,8.73c-4.53,5.29-8.03,11.3-11.42,17.15
			c-0.88,1.51-1.79,3.07-2.7,4.59c-3.74,6.25-7.82,12.23-12.38,18.84c-2.32,3.36-4.39,6.33-6.39,9.12c0.45-2.73,0.92-5.38,1.34-7.76
			c1.62-9.13,3.01-16.1,4.49-22.57c0.62-2.72,1.34-5.46,2.04-8.11c1.51-5.74,3.07-11.68,3.78-17.8c0.6-5.14,0.35-9.62-0.77-13.7
			c-0.93-3.37-2.52-6.24-4.1-9.07l-0.67-1.22c-1.64-2.99-1.7-6.4-0.21-11.03c1.18-3.68,3.28-8.92,6.61-13.27
			c7.51-1.7,14.81-4.37,21.73-7.94c6.82-3.51,12.61-7.61,17.26-12.19c-0.16,17.37,8.2,33.49,13.54,41.99
			C242.76,145.24,241.41,149.42,239.17,154.21z M177.45,126.58L177.45,126.58c-1.6,3.75-3.62,9.39-2.8,15.06
			c0.47,3.23,1.93,5.79,3.35,8.28c0.3,0.52,0.59,1.03,0.88,1.56c1.92,3.51,2.88,7.29,2.85,11.23c-0.04,6.88-1.93,13.88-3.76,20.65
			l-0.03,0.12c-0.48,1.78-0.98,3.62-1.43,5.43c-1.83,7.27-3.2,14.51-4.66,22.5c-1.07-5.9-2.42-12.93-4.05-19.97
			c-0.62-2.69-1.34-5.38-2.03-7.98c-1.55-5.8-3.15-11.8-3.66-17.76c-0.39-4.6,0.14-8.54,1.63-12.04c0.51-1.21,1.19-2.38,1.91-3.61
			c0.98-1.69,1.99-3.43,2.69-5.44c1.57-4.53,1.08-9.94-1.49-16.54c-0.65-1.68-1.62-4.06-2.9-6.62c5.48,0.51,10.62,0.47,15.87-0.04
			C179.07,122.87,178.31,124.54,177.45,126.58z M160.15,142.26c-0.52,1.35-1.28,2.66-2.08,4.05c-0.82,1.42-1.67,2.88-2.34,4.52
			c-1.71,4.2-2.45,8.77-2.22,13.6c0.36,7.34,2.24,14.43,4.07,21.29l0.04,0.16c0.49,1.84,0.99,3.74,1.46,5.6
			c1.74,7.03,3.11,14.28,4.47,21.7c0.73,4.01,1.37,7.56,1.93,10.95c-1.58-2.2-3.1-4.38-4.55-6.45c-3.68-5.27-8.47-12.24-12.97-19.44
			c-1.42-2.27-2.79-4.63-4.13-6.92c-2.82-4.83-5.73-9.82-9.26-14.41c-3.25-4.23-6.36-7.18-9.78-9.3c-3.47-2.15-6.95-3.16-10.64-4.23
			l-1.06-0.31c-3.25-0.95-5.68-3.27-7.89-7.51c-1.78-3.42-4.03-8.61-4.77-14.12c4.19-6.61,7.54-13.77,9.96-21.28
			c2.31-7.19,3.49-14.06,3.51-20.46c12.18,12.29,29.39,17.74,39.13,19.97c2.23,2.94,4.15,6.66,6.01,11.65
			C160.24,134.61,161.47,138.81,160.15,142.26z M112.81,171.8c0.66,0.18,1.35,0.37,2.01,0.57c3.88,1.18,7.3,3.31,10.17,6.35
			c4.6,4.86,8.1,10.94,11.49,16.83c0.94,1.64,1.92,3.33,2.9,4.98c3.83,6.4,7.96,12.46,12.56,19.11
			c-4.92-3.41-10.84-7.42-16.96-11.24c-2.35-1.47-4.76-2.86-7.09-4.21c-5.02-2.91-10.21-5.91-14.68-9.58
			c-3.59-2.94-6.06-6.03-7.57-9.44c-0.6-1.36-1-2.85-1.43-4.43c-0.54-2.02-1.1-4.11-2.14-6.14c-2.09-4.08-6.09-7.41-12.24-10.18
			c-2.51-1.13-4.84-2.05-7.06-2.79c4.01-3.32,7.75-7.08,11.16-11.21c0.76,2.27,1.57,4.3,2.17,5.75c1.46,3.52,3.9,8.58,8.15,11.92
			C106.96,170.19,109.93,171.01,112.81,171.8z M96.25,183.54c0.47,1.76,0.97,3.58,1.77,5.37c1.88,4.18,4.82,8,8.73,11.35
			c5.29,4.53,11.3,8.02,17.11,11.41c1.52,0.89,3.1,1.8,4.62,2.72c6.25,3.75,12.23,7.83,18.84,12.38c3.36,2.32,6.32,4.38,9.12,6.39
			c-2.73-0.45-5.38-0.92-7.76-1.34c-9.14-1.63-16.11-3.01-22.57-4.49c-2.68-0.61-5.41-1.33-8.11-2.04
			c-5.74-1.51-11.68-3.07-17.8-3.78c-1.8-0.21-3.53-0.32-5.18-0.32c-3.05,0-5.87,0.36-8.52,1.09c-3.36,0.93-6.23,2.52-9.01,4.06
			l-1.27,0.71c-2.99,1.64-6.4,1.7-11.03,0.21c-3.64-1.17-8.85-3.25-13.19-6.55c-1.75-7.82-4.53-15.41-8.27-22.58
			c-3.44-6.59-7.43-12.18-11.9-16.64c0,0,0,0,0.01,0c13.44,0,27.92-4.63,41.9-13.38c3.78,0.52,7.97,1.86,12.78,4.11
			c3.04,1.42,6.71,3.45,8.2,6.66C95.37,180.29,95.8,181.86,96.25,183.54z M51.96,258.4c2.95-2.24,6.67-4.16,11.68-6.03
			c3.27-1.22,7.48-2.45,10.92-1.13c1.35,0.52,2.66,1.28,4.05,2.08c1.42,0.82,2.88,1.67,4.52,2.34c4.2,1.71,8.77,2.46,13.6,2.22
			c7.34-0.36,14.43-2.24,21.32-4.08c1.88-0.5,3.83-1.02,5.74-1.49c7.01-1.74,14.27-3.11,21.7-4.47c4-0.73,7.56-1.37,10.95-1.93
			c-2.26,1.62-4.47,3.17-6.45,4.55c-5.27,3.68-12.24,8.48-19.44,12.97c-2.28,1.43-4.64,2.8-6.92,4.13
			c-4.83,2.82-9.82,5.73-14.41,9.26c-4.22,3.25-7.18,6.36-9.3,9.78c-2.15,3.47-3.16,6.96-4.22,10.64l-0.31,1.06
			c-0.95,3.25-3.27,5.68-7.51,7.89c-3.42,1.78-8.61,4.03-14.12,4.77c-6.61-4.19-13.77-7.54-21.28-9.96
			c-7.26-2.33-14.19-3.51-20.65-3.51c-0.05,0-0.1,0-0.15,0c3.78-3.82,7.23-8.41,10.28-13.66C46.41,276.18,49.87,267.39,51.96,258.4z
			 M88.45,315.28c3.52-1.46,8.58-3.9,11.92-8.15c2.12-2.7,2.94-5.67,3.75-8.61c0.18-0.64,0.36-1.31,0.56-1.95
			c1.18-3.88,3.31-7.3,6.35-10.17c4.86-4.6,10.94-8.1,16.92-11.54c1.61-0.93,3.27-1.88,4.88-2.85c6.39-3.83,12.45-7.96,19.11-12.56
			c-3.41,4.92-7.41,10.84-11.24,16.96c-1.45,2.33-2.85,4.73-4.22,7.1c-2.9,5.01-5.91,10.2-9.57,14.67
			c-2.94,3.59-6.03,6.06-9.44,7.57c-1.36,0.6-2.86,1-4.43,1.43c-2.02,0.54-4.11,1.1-6.14,2.14c-4.08,2.09-7.41,6.09-10.18,12.24
			c-1.13,2.52-2.05,4.84-2.79,7.06c-3.32-4.01-7.08-7.75-11.21-11.16C84.98,316.7,87,315.88,88.45,315.28z M104.52,324.87
			c1.42-3.04,3.45-6.71,6.66-8.2c1.41-0.65,2.98-1.08,4.65-1.53c1.76-0.47,3.58-0.97,5.38-1.78c4.18-1.88,8-4.82,11.35-8.73
			c4.54-5.29,8.03-11.3,11.4-17.11c0.88-1.52,1.8-3.1,2.72-4.63c3.73-6.23,7.82-12.22,12.38-18.84c2.32-3.36,4.39-6.33,6.39-9.12
			c-0.45,2.73-0.92,5.39-1.34,7.76c-1.62,9.13-3.01,16.1-4.5,22.57c-0.61,2.68-1.33,5.4-2.04,8.11c-1.51,5.74-3.07,11.68-3.78,17.8
			c-0.6,5.14-0.35,9.62,0.77,13.7c0.93,3.37,2.52,6.23,4.06,9.01l0.7,1.27c1.64,2.99,1.7,6.4,0.21,11.03
			c-1.17,3.64-3.25,8.85-6.55,13.19c-7.82,1.76-15.42,4.54-22.58,8.27c-6.61,3.44-12.2,7.45-16.66,11.92
			c0-13.3-4.68-28.05-13.36-41.92C100.92,333.88,102.27,329.69,104.52,324.87z M166.24,352.51c1.6-3.75,3.62-9.39,2.8-15.06
			c-0.47-3.23-1.94-5.8-3.36-8.28c-0.29-0.52-0.59-1.03-0.88-1.56c-1.92-3.51-2.88-7.29-2.85-11.23c0.04-6.89,1.93-13.88,3.76-20.65
			c0.49-1.82,1-3.7,1.46-5.55c1.83-7.26,3.2-14.5,4.66-22.5c1.07,5.9,2.42,12.93,4.05,19.97c0.62,2.69,1.34,5.38,2.04,7.99
			c1.55,5.8,3.15,11.79,3.66,17.75c0.39,4.6-0.14,8.54-1.63,12.04c-0.51,1.2-1.19,2.37-1.91,3.62c-0.98,1.69-1.99,3.43-2.68,5.44
			c-1.57,4.53-1.08,9.94,1.49,16.54c0.65,1.68,1.61,4.04,2.89,6.58c-5.22-0.5-10.53-0.49-15.83,0.01
			C164.64,356.16,165.39,354.51,166.24,352.51z M183.54,336.83c0.52-1.34,1.27-2.65,2.09-4.07c0.82-1.41,1.67-2.87,2.33-4.5
			c1.71-4.2,2.45-8.77,2.22-13.6c-0.36-7.34-2.24-14.43-4.07-21.3c-0.5-1.89-1.02-3.84-1.5-5.76c-1.74-7.03-3.11-14.28-4.47-21.7
			c-0.73-4.01-1.37-7.56-1.93-10.95c1.61,2.25,3.17,4.47,4.55,6.45c3.68,5.27,8.48,12.24,12.97,19.44c1.41,2.27,2.79,4.63,4.13,6.92
			c2.82,4.83,5.73,9.82,9.26,14.41c3.25,4.22,6.36,7.18,9.78,9.3c3.47,2.15,6.95,3.16,10.64,4.23l1.06,0.31
			c3.25,0.95,5.68,3.27,7.89,7.51c1.79,3.44,4.05,8.66,4.78,14.19c-4.28,6.8-7.65,14.16-10.03,21.88
			c-2.19,7.11-3.29,13.92-3.31,20.28c-3.85-3.84-8.48-7.34-13.8-10.43c-7.66-4.45-16.45-7.91-25.45-10
			c-2.24-2.95-4.16-6.67-6.03-11.68C183.45,344.47,182.22,340.27,183.54,336.83z M230.88,307.28c-0.66-0.18-1.35-0.37-2.01-0.57
			c-3.88-1.18-7.3-3.31-10.17-6.35c-4.61-4.87-8.1-10.95-11.53-16.89c-0.93-1.62-1.9-3.29-2.87-4.91
			c-3.84-6.41-7.97-12.46-12.56-19.11c4.92,3.41,10.84,7.41,16.96,11.24c2.34,1.46,4.75,2.86,7.09,4.21
			c5.02,2.91,10.21,5.91,14.68,9.58c3.59,2.94,6.06,6.03,7.57,9.44c0.6,1.36,1,2.86,1.43,4.44c0.54,2.02,1.1,4.1,2.14,6.14
			c2.09,4.08,6.09,7.41,12.24,10.18c2.52,1.13,4.85,2.05,7.07,2.79c-4.04,3.35-7.78,7.11-11.16,11.22
			c-0.76-2.28-1.57-4.31-2.18-5.76c-1.46-3.52-3.9-8.58-8.15-11.92C236.74,308.89,233.76,308.08,230.88,307.28z M247.44,295.54
			c-0.47-1.76-0.97-3.57-1.77-5.37c-1.88-4.18-4.82-8-8.73-11.35c-5.28-4.53-11.28-8.02-17.11-11.4c-1.52-0.89-3.1-1.8-4.63-2.72
			c-6.26-3.75-12.23-7.83-18.84-12.39c-3.36-2.32-6.32-4.38-9.12-6.39c2.67,0.44,5.28,0.9,7.77,1.34c9.14,1.63,16.1,3.01,22.57,4.49
			c2.69,0.62,5.44,1.34,8.13,2.04c5.74,1.51,11.67,3.06,17.78,3.78c5.14,0.6,9.62,0.35,13.7-0.77c3.37-0.93,6.24-2.52,9.01-4.06
			l1.28-0.71c2.99-1.64,6.4-1.7,11.03-0.21c3.68,1.18,8.93,3.28,13.28,6.62c1.71,7.52,4.37,14.83,7.93,21.72
			c3.51,6.82,7.61,12.61,12.19,17.26c-17.38-0.2-33.48,8.2-41.99,13.54c-3.77-0.52-7.94-1.87-12.74-4.11
			c-3.04-1.42-6.71-3.45-8.2-6.66C248.32,298.8,247.89,297.22,247.44,295.54z"/>
		<path class="st0" d="M24.82,251.72h0.06l0.18,0c5.38-0.12,12.45-2.07,16.18-7.17c1.58-2.16,2.13-4.58,1.59-7
			c-0.64-2.88-2.82-5.53-5.98-7.25c-5.78-3.15-12.95-3.89-18.27-1.87c-5.35,2.03-8.48,7.11-7.8,12.63
			c0.94,7.62,8.05,10.5,13.81,10.65C24.67,251.71,24.74,251.72,24.82,251.72z M19.11,239.07c0.33-2.84,3.97-3.26,6.11-3.26
			c0.48,0,0.86,0.02,1.08,0.04c2.42,0.19,4.65,0.81,6.44,1.79c1.51,0.83,1.92,1.44,1.95,1.55c-0.01,0.09-0.19,0.97-2.81,2.36
			c-2.06,1.09-4.5,1.69-7.01,1.74c-2.22-0.04-4.18-0.73-5.12-1.81C19.2,240.86,19,240.09,19.11,239.07z"/>
		<path class="st0" d="M273.29,328.3c-3.25-0.83-6.46-0.45-8.81,1.03c-1.96,1.24-3.26,3.17-3.74,5.58
			c-1.27,6.37,2.41,12.97,6.28,17.01c0.05,0.06,0.11,0.12,0.16,0.16c0.06,0.06,0.12,0.11,0.16,0.16c3.23,3.06,6.8,4.68,10.34,4.68
			c2.32,0,4.53-0.68,6.4-1.98c5.05-3.5,6.56-9.89,3.69-15.56C285.18,334.3,279.36,329.85,273.29,328.3z M273.15,346.14
			c-2.6-2.69-4.86-6.85-4.14-9.59c0.06-0.21,0.11-0.28,0.12-0.28c0.79-0.32,3.28,0.32,5.74,1.79c0.3,0.18,7.44,4.51,5.76,8.42
			c-0.44,1.01-1.5,1.87-2.53,2.04C276.67,348.75,275.04,347.96,273.15,346.14z"/>
		<path class="st0" d="M59.29,144.21l0.15,0.15c4.27,4.09,9.69,6.53,14.52,6.53c0.16,0,0.32,0,0.48-0.01
			c2.82-0.09,5.28-1.2,6.93-3.13c1.69-1.97,2.44-4.64,2.1-7.54c-0.74-6.3-6.51-15.04-13.61-17.51c-4.42-1.53-8.57-0.54-11.98,2.87
			c-5.71,5.71-3.36,13.57,1.23,18.44C59.17,144.08,59.23,144.14,59.29,144.21z M62.85,133.44c0.13-1.1,0.98-2.2,2.06-2.67
			c0.32-0.14,0.73-0.27,1.25-0.27c0.75,0,1.71,0.28,2.97,1.19c2.1,1.53,3.63,3.89,4.19,4.84c1.47,2.47,2.11,4.97,1.8,5.75
			c0,0-0.07,0.05-0.28,0.11c-2.75,0.71-6.91-1.54-9.56-4.11C63.48,136.4,62.69,134.82,62.85,133.44z"/>
	</g>
</g>
</svg>
