<?xml version="1.0" encoding="utf-8"?>
<!-- Generator: Adobe Illustrator 23.0.1, SVG Export Plug-In . SVG Version: 6.00 Build 0)  -->
<svg version="1.1" id="Layer_1" xmlns="http://www.w3.org/2000/svg" xmlns:xlink="http://www.w3.org/1999/xlink" x="0px" y="0px"
	 viewBox="0 0 841.89 479.27" style="enable-background:new 0 0 841.89 479.27;" xml:space="preserve">
<style type="text/css">
	.st0{fill:#FFFFFF;}
</style>
<g>
	<g>
		<path class="st0" d="M367.99,178.55h14.46l3.51,12.01h9.71l-13.09-41.54c-0.47-1.72-1.75-2.67-3.61-2.67h-7.51
			c-1.86,0-3.14,0.95-3.6,2.64l-13.1,41.58h9.71L367.99,178.55z M370.34,170.47l3.93-13.56l0.81-2.99h0.32
			c0.13,0.51,0.36,1.41,0.77,3.01l3.93,13.55H370.34z"/>
		<path class="st0" d="M423,191.29c5.36,0,9.84-0.55,13.31-1.64l0.68-0.21l-0.86-7.37l-0.87,0.12c-2.98,0.4-7.11,0.61-12.26,0.61
			c-3.23,0-5.36-0.92-6.49-2.81c-1.2-2.01-1.82-5.89-1.82-11.53c0-5.64,0.61-9.52,1.82-11.53c1.14-1.89,3.26-2.81,6.49-2.81
			c4.01,0,7.84,0.14,11.38,0.43l0.82,0.07l0.94-7.42l-0.73-0.19c-3.47-0.92-7.64-1.38-12.41-1.38c-6.61,0-11.36,1.77-14.1,5.26
			c-2.73,3.47-4.06,9.23-4.06,17.59c0,8.36,1.33,14.12,4.06,17.59C411.65,189.52,416.39,191.29,423,191.29z"/>
		<path class="st0" d="M465.98,191.29c5.36,0,9.83-0.55,13.31-1.64l0.68-0.21l-0.86-7.37l-0.87,0.12c-2.98,0.4-7.11,0.61-12.26,0.61
			c-3.23,0-5.36-0.92-6.49-2.81c-1.21-2.01-1.82-5.89-1.82-11.53c0-5.64,0.61-9.52,1.82-11.53c1.14-1.89,3.26-2.81,6.49-2.81
			c4.01,0,7.84,0.14,11.38,0.43l0.83,0.07l0.94-7.42l-0.73-0.19c-3.47-0.92-7.64-1.38-12.41-1.38c-6.61,0-11.36,1.77-14.1,5.26
			c-2.74,3.47-4.07,9.23-4.07,17.59s1.33,14.12,4.06,17.59C454.62,189.52,459.36,191.29,465.98,191.29z"/>
		<path class="st0" d="M509.13,191.35c6.81,0,11.65-1.7,14.37-5.06c2.72-3.35,4.04-9.19,4.04-17.85c0-8.66-1.32-14.49-4.04-17.85
			c-2.73-3.36-7.56-5.06-14.37-5.06c-6.77,0-11.58,1.7-14.31,5.06c-2.72,3.35-4.04,9.19-4.04,17.85c0,8.66,1.32,14.5,4.04,17.85
			C497.55,189.65,502.36,191.35,509.13,191.35z M502.52,156.73c1.18-1.94,3.34-2.88,6.62-2.88c3.32,0,5.5,0.94,6.68,2.88
			c1.25,2.05,1.88,5.99,1.88,11.71c0,5.72-0.63,9.66-1.88,11.71c-1.18,1.94-3.36,2.88-6.68,2.88c-3.28,0-5.44-0.94-6.62-2.88
			c-1.24-2.05-1.87-5.99-1.87-11.71C500.64,162.72,501.27,158.78,502.52,156.73z"/>
		<polygon class="st0" points="573.34,199.85 580.37,199.85 580.37,182.85 575.2,182.85 575.2,146.34 565.71,146.34 565.71,182.85 
			551.31,182.85 551.31,146.34 541.89,146.34 541.89,190.55 572.72,190.55 		"/>
		<path class="st0" d="M618.67,162.12c0.2-0.34,0.41-0.72,0.62-1.13c-0.01,0.29-0.01,0.58-0.01,0.87v28.69h9.18v-44.21h-9.25
			l-16.26,28.34c-0.24,0.43-0.46,0.85-0.68,1.27c0.01-0.42,0.02-0.84,0.02-1.28v-28.32h-9.12v44.21h9.19L618.67,162.12z"/>
		<path class="st0" d="M652.74,178.55h14.46l3.51,12.01h9.71l-13.09-41.54c-0.47-1.72-1.75-2.67-3.6-2.67h-7.51
			c-1.86,0-3.14,0.95-3.6,2.64l-13.1,41.58h9.71L652.74,178.55z M655.09,170.47l3.93-13.56l0.81-2.99h0.32
			c0.13,0.51,0.36,1.41,0.77,3.01l3.93,13.55H655.09z"/>
		<polygon class="st0" points="724.81,146.34 715.32,146.34 715.32,182.85 700.92,182.85 700.92,146.34 691.49,146.34 
			691.49,190.55 722.33,190.55 722.95,199.85 729.98,199.85 729.98,182.85 724.81,182.85 		"/>
		<path class="st0" d="M752.55,174.67c-0.24,0.43-0.47,0.85-0.68,1.27c0.01-0.42,0.02-0.85,0.02-1.28v-28.32h-9.12v44.21h9.19
			l16.31-28.43c0.21-0.34,0.41-0.72,0.62-1.13c-0.01,0.29-0.01,0.58-0.01,0.87v28.69h9.18v-44.21h-9.25L752.55,174.67z"/>
		<path class="st0" d="M823.71,146.34c-3.66-0.37-8.87-0.56-15.48-0.56c-5.4,0-9.19,1-11.58,3.07c-2.41,2.07-3.63,5.51-3.63,10.22
			c-0.04,3.62,0.62,6.44,1.97,8.38c1,1.45,2.48,2.48,4.4,3.1c-2.21,1.1-3.69,3.08-4.43,5.91l-3.87,14.09h9.94l3.42-13.37
			c0.63-2.22,1.93-3.25,4.1-3.25l6.45-0.05v16.68h9.49v-44.13L823.71,146.34z M815,153.86v12h-6.58c-2.28,0-3.86-0.46-4.69-1.35
			c-0.85-0.92-1.28-2.57-1.28-4.91c0.05-2.91,0.68-4.12,1.21-4.62c0.53-0.51,1.79-1.11,4.76-1.11H815z"/>
	</g>
	<g>
		<g>
			<path class="st0" d="M402.04,224.05c-0.15-2.47-1.55-3.83-3.94-3.83h-7.88c-2.13,0-3.55,1.12-4.1,3.23l-6.04,23
				c-0.07,0.3-0.36,1.62-0.88,3.97c-0.3-1.5-0.59-2.82-0.89-3.94l-6.09-23.01c-0.51-2.13-1.88-3.25-3.98-3.25h-7.94
				c-2.4,0-3.78,1.37-3.88,3.85l-1.64,40.37h9.25l1.24-34.93l6.87,26.28c0.55,2.11,1.99,3.23,4.16,3.23h5.85
				c2.13,0,3.55-1.12,4.1-3.23l6.82-26.3l1.42,34.95h9.25L402.04,224.05z"/>
			<path class="st0" d="M449.9,260.17c2.72-3.35,4.04-9.19,4.04-17.85c0-8.66-1.32-14.5-4.04-17.85c-2.73-3.36-7.56-5.06-14.37-5.06
				c-6.77,0-11.58,1.7-14.31,5.06c-2.72,3.35-4.04,9.19-4.04,17.85c0,8.66,1.32,14.5,4.04,17.85c2.72,3.36,7.54,5.06,14.31,5.06
				C442.34,265.23,447.18,263.53,449.9,260.17z M428.91,230.62c1.18-1.94,3.34-2.88,6.62-2.88c3.32,0,5.5,0.94,6.68,2.88
				c1.24,2.05,1.87,5.99,1.87,11.71c0,5.72-0.63,9.66-1.87,11.71c-1.18,1.94-3.36,2.88-6.68,2.88c-3.28,0-5.44-0.94-6.62-2.88
				c-1.24-2.05-1.88-5.99-1.88-11.71C427.04,236.6,427.67,232.66,428.91,230.62z"/>
			<path class="st0" d="M468.14,256.73h-4.66v17h7.03l0.68-9.3h27.57l0.68,9.3h7.03v-17h-5.42v-36.51h-16.94
				c-3.08,0-5.59,0.86-7.45,2.57c-1.87,1.71-2.9,4.04-3.08,6.92C472.79,240.8,470.96,249.89,468.14,256.73z M477.4,256.73
				c1.42-3.19,2.52-6.65,3.28-10.29c0.84-4.09,1.52-9.26,2.02-15.4c0.09-1.55,0.46-2.22,0.75-2.5c0.42-0.41,1.25-0.62,2.39-0.62
				h5.78v28.81H477.4z"/>
			<path class="st0" d="M548.31,263.99l-0.39-7.5h-17.51c-0.58,0-1.33-0.09-1.68-0.49c-0.18-0.21-0.47-0.77-0.47-2.21v-8.62h17.36
				v-7.64h-17.36v-6.58c0-1.44,0.3-2,0.47-2.21c0.35-0.41,1.1-0.49,1.68-0.49h17.51l0.39-7.57l-0.83-0.07
				c-3.75-0.33-10.07-0.5-18.79-0.5c-3,0-5.41,0.8-7.17,2.38c-1.78,1.6-2.69,3.81-2.69,6.56v26.6c0,2.75,0.9,4.95,2.69,6.56
				c1.76,1.58,4.17,2.38,7.17,2.38c8.73,0,15.05-0.17,18.79-0.5L548.31,263.99z"/>
			<path class="st0" d="M595.24,264.43v-44.21h-17.37c-6.24,0-9.82,3.25-10.35,9.42c-0.49,6.68-0.98,11.66-1.47,14.8
				c-0.48,3.11-1.19,5.85-2.11,8.17c-0.47,1.23-1.14,2.17-1.98,2.78c-0.89,0.65-2.07,1.15-3.51,1.49l-0.74,0.18l0.77,7.44l0.72,0.06
				c0.46,0.04,0.91,0.06,1.34,0.06c5.65,0,9.78-3.14,12.27-9.33c1.05-2.56,1.83-5.54,2.33-8.85c0.49-3.25,1.03-8.44,1.61-15.41
				c0.2-2.14,1.21-3.09,3.26-3.09h5.72v36.51H595.24z"/>
			<path class="st0" d="M640.23,263.99l-0.39-7.5h-17.51c-0.58,0-1.33-0.09-1.68-0.49c-0.18-0.21-0.47-0.77-0.47-2.21v-8.62h17.36
				v-7.64h-17.36v-6.58c0-1.44,0.3-2,0.47-2.21c0.35-0.41,1.1-0.49,1.68-0.49h17.51l0.39-7.57l-0.83-0.07
				c-3.75-0.33-10.07-0.5-18.79-0.5c-3,0-5.41,0.8-7.17,2.38c-1.78,1.6-2.69,3.81-2.69,6.56v26.6c0,2.75,0.9,4.95,2.69,6.56
				c1.76,1.58,4.17,2.38,7.17,2.38c8.73,0,15.05-0.17,18.79-0.5L640.23,263.99z"/>
			<path class="st0" d="M663.87,248.55c-0.24,0.43-0.47,0.85-0.68,1.27c0.01-0.42,0.02-0.85,0.02-1.28v-28.32h-9.12v44.21h9.19
				L679.59,236c0.21-0.34,0.41-0.72,0.62-1.13c-0.01,0.29-0.01,0.58-0.01,0.87v28.69h9.18v-44.21h-9.25L663.87,248.55z"/>
		</g>
		<path class="st0" d="M675.52,208.91c0.04,1.59-0.28,2.75-0.95,3.43c-0.56,0.58-1.4,0.86-2.56,0.86c-1.22,0-2.1-0.29-2.68-0.89
			c-0.67-0.68-0.98-1.82-0.95-3.4l0.02-0.89h-6.96l-0.09,0.77c-0.32,2.82,0.55,5.22,2.57,7.16c1.98,1.9,4.7,2.86,8.08,2.86
			c3.34,0,6.02-0.96,7.96-2.86c1.97-1.93,2.84-4.33,2.57-7.14l-0.08-0.78h-6.97L675.52,208.91z"/>
	</g>
	<g>
		<path class="st0" d="M373.96,318.11h-1.41c-0.17,0-0.23-0.03-0.23-0.03c0,0-0.02-0.03-0.06-0.17l-7.77-23.81h-9.72l9.63,27.86
			c0.89,2.73,2.88,4.17,5.75,4.17h0.98l-0.13,0.36c-0.35,0.9-0.65,1.61-0.87,2.11c-0.18,0.38-0.45,0.75-0.81,1.07
			c-0.5,0.45-0.8,0.65-0.97,0.74c-0.05,0.03-0.36,0.17-1.46,0.27c-0.83,0.08-1.59,0.1-2.24,0.06c-0.7-0.04-1.85-0.1-3.45-0.19
			l-0.78-0.04l-1.1,7.14l0.75,0.2c2.53,0.67,5.01,1.01,7.43,1.01c0.61,0,1.21-0.02,1.8-0.06c2.85-0.27,5.15-1.43,6.83-3.45
			c1.6-1.92,3.05-4.74,4.31-8.4l11.29-32.85h-9.78L373.96,318.11z"/>
		<path class="st0" d="M435.06,333.54c-2.38-7.15-4.33-11.86-5.94-14.38c-1.18-1.85-2.88-3.17-5.07-3.93
			c2.6-1.05,4.76-3.37,6.41-6.88c0.85-1.69,2.39-5.98,4.73-13.11l0.37-1.14h-9.69l-0.17,0.65c-0.04,0.16-0.1,0.38-0.17,0.63
			c-0.66,2.05-1.29,3.98-1.9,5.81c-0.6,1.79-1.21,3.33-1.81,4.58c-0.58,1.23-1.24,2.31-1.96,3.22c-0.67,0.85-1.46,1.5-2.33,1.91
			c-0.89,0.42-1.91,0.63-3.05,0.63h-2.57c0.2-1.49,0.3-2.85,0.3-4.06V294.1h-9.43v44.21h9.43v-15.83c0-0.94-0.09-2.06-0.28-3.32
			h2.55c0.9,0,1.69,0.09,2.35,0.28c1.92,0.54,3.59,2.18,4.93,4.83c0.8,1.68,2.42,6.2,4.82,13.45l0.2,0.59h9.89l-0.38-1.14
			C436.01,336.31,435.6,335.1,435.06,333.54z"/>
		<path class="st0" d="M465.15,293.55c-6.61,0-11.82,0.19-15.48,0.56l-0.78,0.08v44.13h9.49v-16.09c2.45,0.26,5.03,0.39,7.69,0.39
			c5.41,0,9.1-1.02,11.28-3.1c2.19-2.1,3.25-5.84,3.25-11.43c0-5.6-1.12-9.35-3.42-11.44C474.91,294.56,470.97,293.55,465.15,293.55
			z M458.38,301.62h6.58c2.42,0,4.12,0.43,4.92,1.25c0.56,0.57,1.23,1.94,1.23,5.21c0,3.27-0.67,4.64-1.23,5.21
			c-0.8,0.82-2.51,1.27-4.92,1.31h-6.58V301.62z"/>
		<path class="st0" d="M511.14,294.1h-7.51c-1.86,0-3.14,0.95-3.6,2.64l-13.1,41.58h9.71l3.51-12.01h14.46l3.51,12.01h9.71
			l-13.09-41.54C514.28,295.05,513,294.1,511.14,294.1z M512.27,318.24h-9.76l3.93-13.56l0.81-2.99h0.32
			c0.13,0.51,0.36,1.41,0.77,3.01L512.27,318.24z"/>
		<path class="st0" d="M548.68,322.44c-0.24,0.43-0.47,0.85-0.68,1.27c0.01-0.42,0.02-0.85,0.02-1.28V294.1h-9.12v44.21h9.19
			l16.31-28.43c0.21-0.34,0.41-0.72,0.62-1.13c-0.01,0.29-0.01,0.58-0.01,0.87v28.69h9.18V294.1h-9.25L548.68,322.44z"/>
		<polygon class="st0" points="614.51,310.79 599.49,310.79 599.49,294.1 590.07,294.1 590.07,338.31 599.49,338.31 599.49,318.86 
			614.51,318.86 614.51,338.31 624,338.31 624,294.1 614.51,294.1 		"/>
		<rect x="676.32" y="294.1" class="st0" width="9.43" height="44.21"/>
		<path class="st0" d="M655.7,310.35h-6.4V294.1h-9.43v44.21l0.97,0c3.74,0.33,9.17,0.5,16.15,0.5c5.2,0,8.81-1,11.02-3.06
			c2.24-2.08,3.33-5.69,3.33-11.04c0-5.32-1.18-9.09-3.52-11.2C665.48,311.38,661.52,310.35,655.7,310.35z M649.3,318.06h6.4
			c3.23,0,4.51,0.69,5.01,1.27c0.52,0.61,1.15,2.01,1.15,5.25c0,3.22-0.59,4.49-1.08,5c-0.49,0.5-1.76,1.09-5.07,1.09l-6.41-0.05
			V318.06z"/>
	</g>
</g>
<g>
	<path class="st0" d="M166.81,131.76L166.81,131.76c0.85,0.36,1.74,0.54,2.65,0.54c0.92,0,1.85-0.19,2.75-0.56
		c5.65-2.32,7.8-9.44,7.93-14.82l0-0.2c0-0.07,0-0.14,0-0.19c-0.14-5.73-2.83-10-7.21-11.42c-4.46-1.45-9.42,0.4-11.79,4.4
		c-2.84,4.79-1.95,11.17-0.17,15.55C161.6,126.6,163.42,130.34,166.81,131.76z M169.36,111.82c0.85-0.1,1.52,0.07,2.06,0.54
		c0.92,0.8,1.51,2.48,1.54,4.34c-0.04,2.11-0.52,4.13-1.4,5.85c-1.24,2.43-2.06,2.56-2.05,2.56c-0.13-0.03-0.67-0.39-1.37-1.66
		c-0.84-1.53-1.37-3.43-1.53-5.49C166.53,117,166.31,112.18,169.36,111.82z"/>
	<path class="st0" d="M174.02,353.7c-1.84-1.35-3.91-1.82-5.98-1.36c-2.46,0.55-4.72,2.41-6.19,5.1c-2.69,4.93-3.32,11.05-1.59,15.6
		c1.55,4.1,5.29,6.74,9.52,6.74c0.42,0,0.85-0.03,1.27-0.08c6.51-0.8,8.97-6.87,9.09-11.8c0-0.07,0.01-0.14,0.01-0.21l0-0.18
		C180.04,362.92,178.37,356.88,174.02,353.7z M172.96,367.67c-0.04,1.9-0.63,3.57-1.54,4.37c-0.54,0.47-1.2,0.64-2.06,0.54
		c-3.05-0.36-2.83-5.17-2.75-6.14c0.16-2.07,0.69-3.97,1.53-5.49c0.7-1.29,1.23-1.64,1.33-1.66c0.08,0.01,0.83,0.16,2.01,2.4
		C172.4,363.45,172.92,365.53,172.96,367.67z"/>
	<path class="st0" d="M251.18,166.31c0.73,0.15,1.5,0.22,2.27,0.22c4.02,0,8.61-2.09,12.24-5.57c0.05-0.05,0.11-0.1,0.15-0.14
		c0.05-0.05,0.1-0.1,0.13-0.14c5.2-5.48,4.6-10.98,2.31-14.29c-2.99-4.31-8.45-5.6-13.28-3.15c-4.34,2.21-8.15,7.18-9.47,12.36
		c-0.7,2.77-0.38,5.51,0.88,7.52C247.47,164.8,249.11,165.9,251.18,166.31z M262.79,151.51c0.2,1.21-0.48,2.6-2.03,4.22
		c-2.3,2.22-5.84,4.15-8.19,3.54c-0.19-0.05-0.24-0.09-0.24-0.1c-0.28-0.67,0.27-2.8,1.53-4.9c1.14-1.91,3.71-5.14,6.12-5.14
		c0.37,0,0.72,0.07,1.07,0.22C261.91,149.72,262.65,150.63,262.79,151.51z"/>
	<path class="st0" d="M91.39,319.44c-1.68-1.44-3.96-2.08-6.43-1.79c-5.38,0.63-12.84,5.56-14.94,11.62
		c-1.31,3.77-0.46,7.31,2.45,10.23c1.88,1.87,4.21,2.87,6.75,2.87c3.07,0,6.36-1.44,9-3.93c0.06-0.05,0.11-0.1,0.14-0.13
		c0.06-0.05,0.11-0.11,0.15-0.15c3.62-3.78,5.7-8.57,5.56-12.8C93.98,322.95,93.03,320.85,91.39,319.44z M83.3,333.18
		c-1.59,1.53-2.94,2.2-4.12,2.06c-0.94-0.11-1.88-0.83-2.28-1.76c-0.3-0.68-0.54-1.79,0.78-3.6c1.31-1.79,3.32-3.1,4.13-3.58
		c1.58-0.94,3.41-1.59,4.46-1.59c0.26,0,0.39,0.04,0.45,0.06c0,0,0.05,0.06,0.09,0.24C87.42,327.36,85.5,330.91,83.3,333.18z"/>
	<path class="st0" d="M302.45,233.59c-4.79-2.84-11.17-1.95-15.55-0.17c-1.54,0.63-5.27,2.45-6.69,5.84
		c-0.73,1.73-0.72,3.6,0.02,5.4c2.32,5.65,9.44,7.8,14.79,7.93c0.06,0,0.12,0.01,0.2,0.01c0.02,0,0.04,0,0.05,0
		c0.06,0,0.12,0,0.15,0c5.73-0.14,10-2.83,11.43-7.21C308.3,240.92,306.45,235.96,302.45,233.59z M299.6,243.86
		c-0.8,0.92-2.48,1.51-4.34,1.54c-2.11-0.04-4.13-0.52-5.85-1.4c-2.42-1.24-2.56-2.06-2.56-2.06c0.03-0.13,0.39-0.67,1.66-1.37
		c1.53-0.84,3.43-1.37,5.5-1.53c0.19-0.01,0.51-0.03,0.92-0.03c1.83,0,4.93,0.36,5.21,2.79
		C300.24,242.67,300.07,243.33,299.6,243.86z"/>
	<path class="st0" d="M300.76,291.68c-5.31-3.32-10.06-8.6-14.1-15.67c-3.53-6.17-6.13-12.99-7.73-20.28
		c-0.01-0.08-0.03-0.17-0.06-0.28l-0.11-0.48c-0.08-0.36-0.16-0.73-0.23-1.1c-1.52-7.85-1.47-16.03,0.16-24.32
		c0.14-0.35,0.23-0.73,0.24-1.12c1.33-6.2,3.49-12.23,6.45-17.95c4.25-8.21,9.41-14.18,15.34-17.73c1.11-0.66,1.77-1.82,1.75-3.09
		c-0.02-1.16-0.87-3.22-1.67-4.07c-0.88-0.94-2.16-1.33-3.44-1.04c-6,1.38-12.96,1.04-20.67-1.01c-6.97-1.86-13.76-4.87-20.17-8.97
		c-0.09-0.07-0.19-0.13-0.32-0.2l-0.31-0.19c-0.11-0.07-0.23-0.14-0.34-0.21c-6.92-4.57-12.9-10.58-17.78-17.87
		c-0.13-0.28-0.3-0.54-0.5-0.76c-3.4-5.23-6.11-10.92-8.06-16.92c-2.92-8.96-3.53-16.96-1.82-23.76c0.24-0.96,0.1-1.93-0.4-2.75
		c-0.85-1.39-3.03-2.35-4.62-2.39c-1.27-0.03-2.46,0.6-3.14,1.69c-3.32,5.31-8.6,10.06-15.67,14.1c-6.17,3.53-12.99,6.13-20.28,7.73
		c-0.07,0.01-0.15,0.03-0.26,0.05l-0.48,0.11c-0.37,0.08-0.74,0.17-1.12,0.24c-7.86,1.52-16.04,1.47-24.34-0.17
		c-0.36-0.14-0.73-0.22-1.11-0.24c-6.19-1.33-12.23-3.49-17.94-6.45c-8.21-4.25-14.18-9.41-17.73-15.34
		c-0.78-1.3-2.42-2.11-3.92-1.64c-1.38,0.43-3.07,1-3.87,2.3c-0.5,0.81-0.64,1.79-0.4,2.75c1.53,6.1,1.19,13.2-1.02,21.11
		c-1.88,6.74-4.89,13.35-8.93,19.64c-0.18,0.22-0.33,0.44-0.44,0.68l-0.21,0.33c-0.12,0.19-0.24,0.37-0.36,0.55
		c-4.57,6.75-10.51,12.57-17.64,17.29c-0.16,0.08-0.3,0.18-0.39,0.25c-5.43,3.54-11.38,6.33-17.67,8.29
		c-8.74,2.72-16.58,3.32-23.3,1.77c-1.27-0.29-2.56,0.09-3.44,1.04c-0.94,1.01-1.65,2.69-1.67,4.07c-0.02,1.27,0.63,2.42,1.75,3.09
		c5.25,3.14,9.92,8.21,13.89,15.08c3.59,6.21,6.25,13.19,7.9,20.76c0.02,0.25,0.08,0.51,0.17,0.76c2.98,14.39,0.71,29.98-6.41,43.91
		c-4.32,8.45-9.56,14.64-15.59,18.41c-1.17,0.73-1.75,1.9-1.58,3.28c0.15,1.23,0.73,3.04,1.59,3.93c0.89,0.92,2.17,1.28,3.44,0.96
		c6.1-1.53,13.2-1.19,21.11,1.02c6.77,1.89,13.4,4.91,19.71,8.98c0.15,0.12,0.31,0.22,0.49,0.32l0.37,0.24
		c0.21,0.14,0.43,0.27,0.64,0.42c6.75,4.57,12.56,10.5,17.29,17.64c0.09,0.17,0.19,0.33,0.27,0.42c3.54,5.43,6.32,11.37,8.27,17.64
		c2.72,8.74,3.32,16.58,1.77,23.3c-0.22,0.96-0.05,1.93,0.47,2.75c0.85,1.33,3.13,2.36,4.69,2.36c1.25,0,2.38-0.66,3.04-1.75
		c3.14-5.25,8.21-9.92,15.08-13.89c6.21-3.59,13.2-6.25,20.77-7.9c0.26-0.02,0.52-0.08,0.77-0.17c14.38-2.98,29.97-0.7,43.89,6.41
		c8.45,4.32,14.64,9.56,18.41,15.59c1.66,2.65,6.19,1.72,7.7-0.65c0.52-0.82,0.69-1.79,0.47-2.75c-1.38-6-1.04-12.96,1.01-20.67
		c1.86-6.98,4.88-13.76,8.97-20.17c0.07-0.1,0.14-0.2,0.21-0.33l0.18-0.29c0.07-0.11,0.14-0.23,0.22-0.34
		c4.56-6.91,10.56-12.89,17.84-17.76c0.3-0.14,0.58-0.32,0.82-0.53c5.22-3.39,10.91-6.1,16.89-8.05c8.96-2.92,16.96-3.53,23.76-1.82
		c1.26,0.32,2.55-0.04,3.44-0.96c0.93-0.96,1.85-3.23,1.7-4.57C302.33,293.22,301.68,292.26,300.76,291.68z M270.64,249.02
		c-1.27-0.63-2.7-1.29-4.45-2.03c-3.2-1.36-8.01-3.09-12.85-2.39c-2.76,0.4-4.95,1.65-7.08,2.87c-0.44,0.25-0.87,0.5-1.31,0.74
		c-2.96,1.62-6.14,2.43-9.46,2.43h-0.12c-5.88-0.04-11.85-1.65-17.71-3.24c-1.53-0.41-3.1-0.84-4.65-1.23
		c-6.2-1.56-12.38-2.73-19.21-3.98c5.04-0.91,11.04-2.07,17.05-3.46c2.3-0.53,4.59-1.14,6.81-1.74c4.95-1.32,10.07-2.69,15.16-3.12
		c3.93-0.34,7.29,0.12,10.28,1.39c1.03,0.44,2.02,1.02,3.09,1.63c1.44,0.84,2.93,1.7,4.65,2.29c3.87,1.34,8.49,0.92,14.12-1.27
		c1.43-0.56,3.46-1.38,5.63-2.47C270.17,239.91,270.19,244.45,270.64,249.02z M93.24,236.95c0.44-0.25,0.88-0.5,1.33-0.75
		c2.96-1.62,6.16-2.43,9.52-2.43c0.02,0,0.05,0,0.07,0c5.88,0.04,11.85,1.65,17.71,3.24c1.53,0.41,3.1,0.84,4.65,1.23
		c6.2,1.56,12.38,2.73,19.21,3.98c-5.04,0.91-11.04,2.07-17.05,3.46c-2.26,0.52-4.53,1.13-6.72,1.71l-0.09,0.03
		c-4.95,1.32-10.07,2.69-15.16,3.12c-3.92,0.34-7.29-0.12-10.28-1.39c-1.02-0.44-2.02-1.01-3.09-1.63c-1.44-0.84-2.93-1.7-4.65-2.29
		c-1.47-0.51-3.05-0.76-4.75-0.76c-2.77,0-5.88,0.68-9.37,2.03c-1.43,0.56-3.45,1.38-5.62,2.47c0.43-4.46,0.42-8.99-0.01-13.51
		c1.27,0.63,2.7,1.28,4.38,2v0c3.2,1.36,8.02,3.09,12.85,2.39C88.93,239.41,91.12,238.16,93.24,236.95z M262.13,231.26
		c-2.8,1.04-6.38,2.09-9.33,0.96c-1.15-0.44-2.27-1.09-3.46-1.78c-1.21-0.7-2.46-1.43-3.86-2c-3.58-1.46-7.49-2.09-11.61-1.89
		c-6.27,0.3-12.32,1.91-18.2,3.48c-1.61,0.43-3.27,0.87-4.9,1.27c-6,1.49-12.19,2.65-18.53,3.82c-3.42,0.63-6.45,1.17-9.35,1.65
		c1.92-1.38,3.81-2.7,5.51-3.89c4.5-3.14,10.46-7.24,16.6-11.07c1.95-1.21,3.96-2.39,5.91-3.53c4.12-2.4,8.38-4.89,12.3-7.9
		c3.61-2.77,6.13-5.43,7.94-8.35c1.83-2.96,2.69-5.94,3.61-9.09l0.26-0.9c0.81-2.77,2.79-4.85,6.41-6.73
		c2.93-1.53,7.39-3.45,12.11-4.08c5.8,3.65,12.09,6.53,18.68,8.56c5.97,1.83,11.69,2.78,17.02,2.83
		c-10.57,10.4-15.26,25.17-17.17,33.52C269.56,228.03,266.39,229.67,262.13,231.26z M240.95,177.55L240.95,177.55
		c-3,1.25-7.33,3.33-10.18,6.96c-1.81,2.3-2.51,4.84-3.19,7.3c-0.16,0.57-0.32,1.15-0.49,1.72c-1.01,3.31-2.83,6.23-5.42,8.68
		c-4.15,3.93-9.34,6.91-14.36,9.81c-1.4,0.81-2.85,1.64-4.25,2.48c-5.46,3.27-10.63,6.8-16.31,10.72c2.91-4.2,6.33-9.26,9.59-14.48
		c1.23-1.97,2.41-4,3.54-5.96l0.05-0.08c2.48-4.28,5.05-8.71,8.18-12.54c2.51-3.06,5.15-5.18,8.06-6.46
		c1.16-0.51,2.44-0.86,3.79-1.22c1.72-0.46,3.51-0.94,5.24-1.83c3.49-1.78,6.33-5.2,8.69-10.45c0.97-2.15,1.75-4.14,2.38-6.03
		c2.86,3.45,6.07,6.64,9.58,9.53C243.92,176.34,242.19,177.04,240.95,177.55z M227.23,169.36c-1.21,2.59-2.95,5.73-5.69,7
		c-1.21,0.56-2.55,0.92-3.98,1.31c-1.5,0.41-3.06,0.82-4.59,1.51c-3.57,1.61-6.83,4.11-9.69,7.45c-3.87,4.52-6.85,9.64-9.75,14.64
		c-0.75,1.29-1.53,2.62-2.3,3.92c-3.19,5.33-6.68,10.44-10.57,16.08c-1.98,2.87-3.74,5.4-5.45,7.79c0.38-2.33,0.78-4.6,1.14-6.63
		c1.39-7.8,2.57-13.74,3.84-19.27c0.53-2.32,1.15-4.66,1.74-6.92c1.29-4.9,2.62-9.97,3.23-15.2c0.51-4.39,0.3-8.21-0.66-11.69
		c-0.79-2.87-2.15-5.32-3.5-7.74l-0.57-1.04c-1.4-2.55-1.46-5.46-0.18-9.42c1.01-3.14,2.8-7.62,5.64-11.33
		c6.41-1.45,12.65-3.73,18.55-6.78c5.82-3,10.76-6.49,14.74-10.4c-0.14,14.83,7,28.59,11.56,35.85
		C230.29,161.71,229.14,165.27,227.23,169.36z M174.54,145.77L174.54,145.77c-1.36,3.2-3.09,8.02-2.39,12.85
		c0.4,2.75,1.65,4.94,2.86,7.06c0.25,0.44,0.5,0.88,0.75,1.33c1.64,3,2.46,6.22,2.43,9.58c-0.04,5.88-1.65,11.85-3.21,17.63
		l-0.03,0.1c-0.41,1.52-0.83,3.09-1.22,4.63c-1.56,6.21-2.73,12.39-3.98,19.21c-0.91-5.03-2.07-11.03-3.46-17.05
		c-0.53-2.3-1.14-4.59-1.74-6.81c-1.32-4.95-2.69-10.07-3.12-15.16c-0.34-3.93,0.12-7.29,1.39-10.28c0.44-1.03,1.02-2.03,1.63-3.09
		c0.84-1.44,1.7-2.93,2.29-4.65c1.34-3.87,0.92-8.49-1.27-14.12c-0.56-1.44-1.38-3.47-2.48-5.65c4.68,0.44,9.07,0.4,13.55-0.04
		C175.92,142.61,175.27,144.04,174.54,145.77z M159.77,159.16c-0.44,1.15-1.09,2.27-1.78,3.46c-0.7,1.21-1.43,2.46-1.99,3.86
		c-1.46,3.58-2.09,7.49-1.89,11.61c0.3,6.27,1.91,12.32,3.47,18.18l0.04,0.14c0.42,1.57,0.85,3.19,1.24,4.78
		c1.49,6,2.65,12.19,3.82,18.53c0.63,3.42,1.17,6.45,1.65,9.35c-1.35-1.88-2.65-3.74-3.89-5.51c-3.14-4.5-7.23-10.45-11.07-16.6
		c-1.21-1.94-2.39-3.95-3.52-5.91c-2.4-4.12-4.89-8.38-7.9-12.3c-2.77-3.61-5.43-6.13-8.35-7.94c-2.96-1.83-5.93-2.69-9.09-3.61
		l-0.91-0.26c-2.77-0.81-4.85-2.79-6.73-6.41c-1.52-2.92-3.44-7.35-4.08-12.06c3.58-5.65,6.44-11.76,8.5-18.17
		c1.97-6.14,2.98-12,3-17.47c10.4,10.49,25.09,15.15,33.4,17.05c1.9,2.51,3.54,5.68,5.13,9.95
		C159.85,152.63,160.9,156.21,159.77,159.16z M119.36,184.38c0.57,0.16,1.15,0.32,1.72,0.49c3.31,1.01,6.23,2.83,8.68,5.42
		c3.93,4.15,6.92,9.34,9.81,14.36c0.81,1.4,1.64,2.85,2.48,4.25c3.27,5.46,6.8,10.63,10.72,16.31c-4.2-2.91-9.25-6.33-14.48-9.59
		c-2.01-1.25-4.06-2.44-6.05-3.59c-4.28-2.48-8.71-5.05-12.53-8.18c-3.06-2.51-5.18-5.15-6.46-8.06c-0.51-1.16-0.86-2.44-1.22-3.79
		c-0.46-1.72-0.94-3.51-1.83-5.24c-1.78-3.49-5.2-6.33-10.45-8.69c-2.15-0.97-4.13-1.75-6.03-2.38c3.42-2.84,6.62-6.05,9.53-9.57
		c0.64,1.94,1.34,3.67,1.86,4.9c1.25,3,3.33,7.33,6.96,10.18C114.36,183,116.9,183.7,119.36,184.38z M105.22,194.4
		c0.41,1.5,0.82,3.05,1.51,4.58c1.61,3.57,4.11,6.83,7.45,9.69c4.51,3.87,9.64,6.85,14.61,9.74c1.3,0.76,2.64,1.54,3.95,2.32
		c5.34,3.2,10.44,6.68,16.08,10.57c2.87,1.98,5.4,3.74,7.79,5.45c-2.33-0.38-4.6-0.78-6.63-1.14c-7.81-1.39-13.75-2.57-19.27-3.84
		c-2.29-0.52-4.62-1.14-6.92-1.74c-4.9-1.29-9.97-2.62-15.2-3.23c-1.54-0.18-3.01-0.27-4.42-0.27c-2.61,0-5.01,0.31-7.27,0.93
		c-2.87,0.79-5.32,2.15-7.69,3.47l-1.09,0.6c-2.55,1.4-5.46,1.45-9.42,0.18c-3.11-1-7.56-2.78-11.26-5.59
		c-1.5-6.67-3.87-13.16-7.06-19.27c-2.93-5.63-6.34-10.4-10.16-14.2c0,0,0,0,0.01,0c11.47,0,23.83-3.95,35.77-11.42
		c3.23,0.44,6.8,1.59,10.91,3.51c2.59,1.21,5.73,2.95,7,5.69C104.47,191.62,104.84,192.96,105.22,194.4z M67.41,258.3
		c2.52-1.91,5.7-3.55,9.97-5.15c2.8-1.04,6.38-2.1,9.33-0.96c1.15,0.44,2.27,1.09,3.46,1.78c1.21,0.7,2.46,1.43,3.86,2
		c3.58,1.46,7.49,2.1,11.61,1.89c6.27-0.3,12.32-1.91,18.2-3.48c1.61-0.43,3.27-0.87,4.9-1.27c5.99-1.48,12.18-2.65,18.53-3.82
		c3.42-0.63,6.45-1.17,9.35-1.65c-1.93,1.38-3.82,2.71-5.51,3.89c-4.5,3.14-10.45,7.24-16.6,11.07c-1.95,1.22-3.96,2.39-5.91,3.53
		c-4.12,2.4-8.38,4.89-12.3,7.9c-3.61,2.77-6.13,5.43-7.94,8.35c-1.83,2.96-2.69,5.94-3.61,9.09l-0.26,0.9
		c-0.81,2.77-2.79,4.85-6.41,6.73c-2.92,1.52-7.35,3.44-12.06,4.07c-5.64-3.58-11.76-6.44-18.17-8.5c-6.2-1.99-12.11-3-17.63-3
		c-0.04,0-0.09,0-0.13,0c3.23-3.26,6.17-7.18,8.78-11.66C62.68,273.48,65.63,265.98,67.41,258.3z M98.56,306.86
		c3-1.25,7.33-3.33,10.18-6.96c1.81-2.31,2.51-4.84,3.2-7.35c0.15-0.55,0.31-1.12,0.47-1.67c1.01-3.31,2.83-6.23,5.42-8.68
		c4.15-3.93,9.34-6.92,14.44-9.85c1.37-0.79,2.79-1.61,4.17-2.43c5.46-3.27,10.63-6.79,16.31-10.72c-2.91,4.2-6.33,9.25-9.59,14.48
		c-1.24,1.99-2.43,4.04-3.6,6.06c-2.48,4.28-5.04,8.71-8.17,12.52c-2.51,3.06-5.15,5.18-8.06,6.46c-1.16,0.51-2.44,0.86-3.79,1.22
		c-1.72,0.46-3.51,0.94-5.24,1.83c-3.48,1.78-6.33,5.2-8.69,10.45c-0.97,2.15-1.75,4.13-2.38,6.03c-2.84-3.42-6.05-6.62-9.57-9.53
		C95.6,308.07,97.33,307.37,98.56,306.86z M112.28,315.05c1.21-2.59,2.95-5.73,5.69-7c1.2-0.56,2.55-0.92,3.97-1.31
		c1.5-0.41,3.06-0.82,4.59-1.52c3.57-1.61,6.83-4.11,9.69-7.45c3.87-4.52,6.85-9.65,9.74-14.61c0.76-1.3,1.54-2.65,2.32-3.95
		c3.19-5.32,6.67-10.43,10.57-16.08c1.98-2.87,3.74-5.4,5.45-7.79c-0.39,2.33-0.78,4.6-1.14,6.63c-1.39,7.8-2.57,13.74-3.84,19.27
		c-0.52,2.29-1.13,4.61-1.74,6.92c-1.29,4.9-2.62,9.97-3.23,15.2c-0.51,4.38-0.3,8.21,0.66,11.69c0.79,2.87,2.15,5.32,3.47,7.69
		l0.6,1.09c1.4,2.55,1.45,5.46,0.18,9.42c-1,3.11-2.78,7.56-5.59,11.26c-6.68,1.5-13.16,3.87-19.27,7.06
		c-5.64,2.94-10.41,6.36-14.22,10.18c0-11.36-4-23.95-11.41-35.79C109.21,322.74,110.36,319.16,112.28,315.05z M164.97,338.64
		c1.36-3.2,3.09-8.01,2.39-12.85c-0.4-2.76-1.65-4.95-2.86-7.07c-0.25-0.44-0.5-0.88-0.75-1.33c-1.64-3-2.46-6.22-2.44-9.58
		c0.04-5.88,1.65-11.85,3.21-17.63c0.42-1.55,0.85-3.16,1.25-4.74c1.56-6.2,2.73-12.38,3.98-19.21c0.91,5.03,2.07,11.04,3.46,17.05
		c0.53,2.3,1.14,4.59,1.74,6.82c1.32,4.95,2.69,10.07,3.12,15.16c0.33,3.93-0.12,7.29-1.39,10.28c-0.44,1.03-1.02,2.03-1.63,3.09
		c-0.84,1.44-1.7,2.93-2.29,4.64c-1.34,3.87-0.92,8.49,1.27,14.12c0.56,1.43,1.38,3.45,2.47,5.62c-4.46-0.42-8.99-0.42-13.51,0.01
		C163.6,341.76,164.25,340.35,164.97,338.64z M179.74,325.25c0.44-1.15,1.09-2.26,1.79-3.47c0.7-1.21,1.42-2.45,1.99-3.84
		c1.46-3.58,2.09-7.49,1.89-11.61c-0.3-6.27-1.91-12.32-3.47-18.18c-0.43-1.61-0.87-3.28-1.28-4.92c-1.49-6-2.65-12.19-3.82-18.53
		c-0.63-3.42-1.17-6.45-1.65-9.35c1.38,1.92,2.7,3.81,3.89,5.51c3.14,4.5,7.24,10.45,11.07,16.59c1.21,1.93,2.39,3.95,3.52,5.91
		c2.4,4.12,4.89,8.38,7.9,12.3c2.77,3.61,5.43,6.13,8.35,7.94c2.96,1.83,5.94,2.69,9.09,3.61l0.91,0.26
		c2.77,0.81,4.85,2.79,6.73,6.41c1.53,2.93,3.45,7.39,4.08,12.11c-3.65,5.81-6.53,12.09-8.56,18.68
		c-1.87,6.07-2.81,11.88-2.82,17.31c-3.29-3.28-7.24-6.26-11.78-8.9c-6.54-3.8-14.05-6.75-21.72-8.53c-1.91-2.52-3.55-5.7-5.15-9.97
		C179.66,331.78,178.61,328.2,179.74,325.25z M220.15,300.04c-0.57-0.15-1.15-0.32-1.72-0.49c-3.31-1.01-6.23-2.83-8.68-5.42
		c-3.93-4.16-6.92-9.35-9.84-14.42c-0.8-1.38-1.62-2.81-2.45-4.19c-3.28-5.47-6.8-10.64-10.72-16.31c4.2,2.91,9.25,6.33,14.48,9.59
		c2,1.25,4.06,2.44,6.05,3.59c4.28,2.48,8.71,5.05,12.53,8.18c3.06,2.51,5.18,5.15,6.46,8.06c0.51,1.16,0.86,2.44,1.22,3.79
		c0.46,1.72,0.94,3.5,1.83,5.24c1.78,3.48,5.2,6.33,10.45,8.69c2.15,0.97,4.14,1.75,6.03,2.38c-3.45,2.86-6.64,6.07-9.53,9.58
		c-0.65-1.94-1.34-3.68-1.86-4.91c-1.25-3-3.33-7.33-6.96-10.18C225.15,301.41,222.61,300.71,220.15,300.04z M234.29,290.01
		c-0.41-1.5-0.82-3.05-1.51-4.58c-1.61-3.57-4.11-6.83-7.45-9.69c-4.51-3.87-9.63-6.85-14.6-9.74c-1.3-0.76-2.65-1.54-3.95-2.32
		c-5.34-3.2-10.44-6.68-16.08-10.57c-2.87-1.98-5.4-3.74-7.79-5.45c2.28,0.38,4.51,0.77,6.63,1.14c7.8,1.39,13.74,2.57,19.27,3.84
		c2.3,0.53,4.64,1.14,6.94,1.75c4.9,1.28,9.96,2.61,15.18,3.23c4.39,0.51,8.21,0.3,11.69-0.66c2.88-0.79,5.32-2.15,7.69-3.47
		l1.09-0.6c2.55-1.4,5.46-1.45,9.42-0.18c3.14,1.01,7.62,2.8,11.34,5.65c1.46,6.42,3.73,12.66,6.77,18.54
		c3,5.82,6.49,10.76,10.4,14.74c-14.84-0.17-28.58,7-35.85,11.56c-3.22-0.45-6.78-1.59-10.88-3.5c-2.59-1.21-5.73-2.95-7-5.69
		C235.04,292.79,234.68,291.45,234.29,290.01z"/>
	<path class="st0" d="M44.25,252.6h0.05l0.16,0c4.59-0.11,10.63-1.77,13.81-6.12c1.35-1.84,1.82-3.91,1.36-5.98
		c-0.55-2.46-2.41-4.72-5.1-6.19c-4.93-2.69-11.06-3.32-15.6-1.59c-4.57,1.73-7.24,6.07-6.66,10.79c0.8,6.51,6.87,8.97,11.79,9.09
		C44.11,252.6,44.18,252.6,44.25,252.6z M39.37,241.81c0.28-2.42,3.39-2.79,5.21-2.79c0.41,0,0.73,0.02,0.92,0.03
		c2.07,0.16,3.97,0.69,5.49,1.53c1.29,0.7,1.64,1.23,1.66,1.33c-0.01,0.08-0.16,0.83-2.4,2.01c-1.76,0.93-3.84,1.45-5.98,1.48
		c-1.89-0.03-3.57-0.62-4.37-1.54C39.45,243.33,39.27,242.67,39.37,241.81z"/>
	<path class="st0" d="M256.36,317.98c-2.77-0.71-5.51-0.39-7.52,0.88c-1.68,1.06-2.78,2.7-3.19,4.77
		c-1.09,5.44,2.06,11.07,5.36,14.52c0.05,0.05,0.09,0.1,0.13,0.14c0.05,0.05,0.1,0.1,0.14,0.13c2.76,2.61,5.81,3.99,8.83,3.99
		c1.98,0,3.87-0.58,5.46-1.69c4.31-2.99,5.6-8.45,3.15-13.28C266.51,323.1,261.54,319.3,256.36,317.98z M256.23,333.21
		c-2.22-2.3-4.15-5.85-3.54-8.19c0.05-0.18,0.09-0.24,0.1-0.24c0.68-0.27,2.8,0.27,4.9,1.53c0.26,0.16,6.35,3.85,4.91,7.19
		c-0.37,0.87-1.28,1.6-2.16,1.74C259.24,335.43,257.85,334.76,256.23,333.21z"/>
	<path class="st0" d="M73.67,160.82l0.13,0.13c3.64,3.49,8.27,5.57,12.39,5.57c0.14,0,0.27,0,0.41-0.01c2.4-0.08,4.5-1.03,5.92-2.67
		c1.44-1.68,2.08-3.96,1.79-6.43c-0.63-5.38-5.56-12.84-11.62-14.95c-3.78-1.31-7.31-0.46-10.23,2.45
		c-4.88,4.88-2.87,11.58,1.05,15.74C73.57,160.71,73.62,160.77,73.67,160.82z M76.71,151.63c0.11-0.94,0.83-1.88,1.76-2.28
		c0.28-0.12,0.63-0.23,1.07-0.23c0.64,0,1.46,0.23,2.53,1.02c1.79,1.31,3.1,3.32,3.58,4.13c1.25,2.11,1.8,4.24,1.53,4.91
		c0,0-0.06,0.05-0.24,0.09c-2.35,0.61-5.9-1.32-8.17-3.51C77.25,154.16,76.57,152.81,76.71,151.63z"/>
</g>
</svg>
