<?xml version="1.0" encoding="utf-8"?>
<!-- Generator: Adobe Illustrator 23.0.1, SVG Export Plug-In . SVG Version: 6.00 Build 0)  -->
<svg version="1.1" id="Layer_1" xmlns="http://www.w3.org/2000/svg" xmlns:xlink="http://www.w3.org/1999/xlink" x="0px" y="0px"
	 viewBox="0 0 841.89 479.27" style="enable-background:new 0 0 841.89 479.27;" xml:space="preserve">
<style type="text/css">
	.st0{fill:#FF6A9A;}
</style>
<g>
	<g>
		<path class="st0" d="M147.25,134.53L147.25,134.53c0.82,0.34,1.67,0.52,2.54,0.52c0.89,0,1.78-0.18,2.64-0.54
			c5.42-2.23,7.49-9.07,7.61-14.23l0-0.19c0-0.07,0-0.14,0-0.18c-0.13-5.5-2.72-9.6-6.92-10.97c-4.28-1.39-9.04,0.39-11.32,4.23
			c-2.73,4.6-1.87,10.73-0.16,14.93C142.25,129.58,144,133.16,147.25,134.53z M149.69,115.39c0.82-0.09,1.46,0.06,1.98,0.52
			c0.88,0.77,1.45,2.38,1.48,4.17c-0.04,2.02-0.5,3.96-1.34,5.61c-1.19,2.34-1.98,2.46-1.97,2.46c-0.13-0.02-0.65-0.37-1.32-1.6
			c-0.8-1.47-1.31-3.29-1.47-5.27C146.98,120.36,146.77,115.73,149.69,115.39z"/>
		<path class="st0" d="M154.17,347.6c-1.77-1.29-3.76-1.74-5.74-1.3c-2.36,0.53-4.53,2.31-5.94,4.9
			c-2.59,4.73-3.19,10.61-1.53,14.97c1.49,3.93,5.08,6.47,9.14,6.47c0.41,0,0.82-0.03,1.22-0.08c6.25-0.77,8.61-6.6,8.73-11.33
			c0-0.07,0-0.13,0-0.2l0-0.18C159.95,356.45,158.35,350.65,154.17,347.6z M153.15,361.01c-0.03,1.82-0.6,3.43-1.48,4.2
			c-0.52,0.45-1.15,0.62-1.98,0.52c-2.93-0.34-2.71-4.97-2.64-5.89c0.16-1.98,0.66-3.81,1.47-5.27c0.68-1.23,1.18-1.58,1.27-1.6
			c0.08,0.01,0.79,0.16,1.93,2.3C152.62,356.96,153.11,358.95,153.15,361.01z"/>
		<path class="st0" d="M228.24,167.7c0.7,0.14,1.44,0.21,2.18,0.21c3.86,0,8.26-2.01,11.75-5.35c0.05-0.05,0.1-0.1,0.14-0.13
			c0.05-0.05,0.09-0.1,0.13-0.13c4.99-5.27,4.42-10.54,2.21-13.72c-2.87-4.14-8.11-5.38-12.75-3.02c-4.17,2.12-7.82,6.89-9.09,11.86
			c-0.68,2.66-0.37,5.29,0.84,7.22C224.68,166.25,226.26,167.31,228.24,167.7z M239.39,153.49c0.19,1.16-0.46,2.49-1.95,4.05
			c-2.2,2.13-5.61,3.99-7.86,3.39c-0.18-0.05-0.23-0.09-0.23-0.1c-0.26-0.65,0.26-2.69,1.46-4.7c1.09-1.83,3.56-4.93,5.88-4.93
			c0.35,0,0.69,0.07,1.02,0.21C238.55,151.77,239.25,152.65,239.39,153.49z"/>
		<path class="st0" d="M74.84,314.71c-1.61-1.39-3.8-1.99-6.18-1.72c-5.16,0.6-12.32,5.33-14.35,11.15
			c-1.26,3.62-0.45,7.02,2.35,9.82c1.8,1.8,4.04,2.75,6.48,2.75c2.95,0,6.1-1.38,8.64-3.77c0.05-0.05,0.1-0.1,0.13-0.13
			c0.05-0.05,0.11-0.11,0.14-0.15c3.48-3.63,5.47-8.22,5.34-12.28C77.33,318.08,76.42,316.06,74.84,314.71z M67.08,327.9
			c-1.53,1.47-2.82,2.12-3.96,1.98c-0.9-0.11-1.8-0.8-2.19-1.69c-0.28-0.65-0.52-1.72,0.75-3.46c1.26-1.72,3.19-2.98,3.96-3.43
			c1.52-0.9,3.27-1.53,4.28-1.53c0.25,0,0.38,0.04,0.44,0.06c0,0,0.04,0.05,0.09,0.23C71.04,322.31,69.19,325.72,67.08,327.9z"/>
		<path class="st0" d="M277.46,232.29c-4.6-2.73-10.73-1.87-14.93-0.16c-1.48,0.6-5.06,2.36-6.43,5.61
			c-0.7,1.66-0.69,3.46,0.02,5.19c2.23,5.42,9.06,7.49,14.2,7.61c0.06,0,0.12,0.01,0.19,0.01c0.02,0,0.04,0,0.05,0
			c0.06,0,0.11,0,0.15,0c5.5-0.13,9.6-2.72,10.97-6.92C283.09,239.33,281.31,234.57,277.46,232.29z M274.73,242.15
			c-0.77,0.88-2.38,1.45-4.17,1.48c-2.02-0.04-3.96-0.5-5.61-1.34c-2.33-1.19-2.46-1.97-2.46-1.97c0.03-0.13,0.37-0.64,1.6-1.31
			c1.47-0.8,3.29-1.31,5.28-1.47c0.18-0.01,0.49-0.03,0.88-0.03c1.75,0,4.74,0.35,5.01,2.67
			C275.34,241.01,275.18,241.64,274.73,242.15z"/>
		<path class="st0" d="M275.84,288.06c-5.1-3.19-9.66-8.25-13.54-15.04c-3.39-5.92-5.88-12.47-7.42-19.47
			c-0.01-0.08-0.03-0.16-0.06-0.27l-0.1-0.47c-0.08-0.35-0.15-0.7-0.22-1.05c-1.46-7.53-1.41-15.39,0.16-23.34
			c0.14-0.34,0.22-0.7,0.23-1.08c1.27-5.95,3.35-11.75,6.19-17.23c4.08-7.89,9.03-13.61,14.73-17.02c1.07-0.64,1.7-1.75,1.68-2.97
			c-0.02-1.11-0.84-3.09-1.6-3.9c-0.84-0.9-2.07-1.28-3.3-1c-5.76,1.33-12.44,1-19.85-0.97c-6.7-1.78-13.21-4.68-19.36-8.61
			c-0.09-0.07-0.19-0.13-0.31-0.2l-0.29-0.19c-0.11-0.07-0.22-0.14-0.32-0.21c-6.64-4.39-12.39-10.16-17.07-17.16
			c-0.13-0.27-0.29-0.51-0.48-0.73c-3.26-5.02-5.87-10.48-7.74-16.24c-2.8-8.6-3.39-16.28-1.75-22.81c0.23-0.92,0.1-1.85-0.38-2.64
			c-0.82-1.33-2.91-2.26-4.43-2.3c-1.22-0.03-2.36,0.57-3.02,1.63c-3.19,5.1-8.25,9.66-15.04,13.54
			c-5.92,3.39-12.47,5.89-19.47,7.42c-0.07,0.01-0.14,0.03-0.25,0.05l-0.46,0.1c-0.36,0.08-0.71,0.16-1.08,0.23
			c-7.54,1.46-15.4,1.41-23.37-0.16c-0.34-0.14-0.7-0.21-1.06-0.23c-5.95-1.27-11.74-3.36-17.22-6.19
			c-7.89-4.08-13.61-9.03-17.02-14.73c-0.75-1.25-2.32-2.03-3.76-1.58c-1.32,0.41-2.95,0.96-3.71,2.21
			c-0.48,0.78-0.61,1.72-0.38,2.64c1.47,5.86,1.14,12.67-0.98,20.26c-1.81,6.47-4.69,12.82-8.58,18.85
			c-0.17,0.21-0.31,0.43-0.42,0.65l-0.2,0.32c-0.11,0.18-0.23,0.36-0.35,0.53c-4.39,6.48-10.09,12.07-16.94,16.6
			c-0.15,0.08-0.29,0.17-0.38,0.24c-5.22,3.4-10.92,6.08-16.96,7.95c-8.4,2.61-15.92,3.18-22.37,1.7c-1.22-0.28-2.46,0.09-3.3,1
			c-0.9,0.97-1.58,2.59-1.6,3.9c-0.02,1.22,0.61,2.33,1.68,2.97c5.04,3.01,9.53,7.88,13.34,14.48c3.45,5.96,6,12.67,7.58,19.93
			c0.02,0.24,0.08,0.49,0.16,0.73c2.87,13.81,0.68,28.78-6.16,42.15c-4.15,8.11-9.18,14.06-14.97,17.68
			c-1.13,0.71-1.68,1.83-1.52,3.15c0.14,1.18,0.7,2.92,1.53,3.77c0.85,0.88,2.09,1.23,3.3,0.92c5.85-1.47,12.67-1.14,20.26,0.98
			c6.5,1.81,12.86,4.71,18.92,8.62c0.14,0.11,0.3,0.21,0.47,0.3l0.36,0.23c0.21,0.13,0.41,0.26,0.61,0.4
			c6.48,4.39,12.06,10.08,16.6,16.93c0.09,0.17,0.18,0.32,0.26,0.41c3.39,5.21,6.07,10.91,7.94,16.94
			c2.61,8.39,3.18,15.92,1.7,22.37c-0.21,0.92-0.05,1.86,0.45,2.64c0.82,1.28,3.01,2.27,4.5,2.27c1.2,0,2.29-0.63,2.92-1.68
			c3.01-5.04,7.88-9.53,14.47-13.34c5.96-3.45,12.67-6,19.94-7.59c0.25-0.02,0.5-0.08,0.74-0.16c13.81-2.86,28.77-0.68,42.13,6.16
			c8.11,4.15,14.06,9.18,17.68,14.97c1.59,2.54,5.94,1.65,7.4-0.63c0.5-0.78,0.66-1.72,0.45-2.64c-1.33-5.76-1-12.44,0.97-19.85
			c1.78-6.7,4.68-13.21,8.61-19.36c0.07-0.09,0.13-0.19,0.2-0.32l0.18-0.28c0.07-0.11,0.14-0.22,0.21-0.33
			c4.38-6.63,10.14-12.37,17.13-17.05c0.29-0.13,0.55-0.3,0.79-0.51c5.02-3.26,10.47-5.86,16.22-7.73c8.6-2.8,16.28-3.39,22.81-1.75
			c1.21,0.31,2.45-0.04,3.3-0.92c0.89-0.92,1.77-3.1,1.63-4.39C277.35,289.54,276.73,288.61,275.84,288.06z M246.93,247.1
			c-1.22-0.61-2.59-1.23-4.27-1.95c-3.07-1.31-7.69-2.97-12.34-2.29c-2.65,0.38-4.75,1.59-6.8,2.76c-0.42,0.24-0.84,0.48-1.26,0.71
			c-2.84,1.55-5.9,2.34-9.08,2.34h-0.12c-5.65-0.03-11.38-1.59-17.01-3.11c-1.47-0.4-2.98-0.8-4.47-1.18
			c-5.96-1.5-11.89-2.62-18.44-3.82c4.84-0.88,10.6-1.99,16.36-3.32c2.2-0.51,4.41-1.1,6.54-1.67c4.75-1.27,9.67-2.58,14.56-3
			c3.77-0.32,7,0.12,9.87,1.34c0.99,0.42,1.94,0.98,2.96,1.57c1.38,0.8,2.81,1.63,4.46,2.2c3.71,1.28,8.15,0.88,13.56-1.22
			c1.38-0.54,3.32-1.32,5.41-2.37C246.48,238.35,246.5,242.71,246.93,247.1z M76.62,235.51c0.42-0.24,0.85-0.48,1.28-0.72
			c2.84-1.55,5.92-2.34,9.14-2.34c0.02,0,0.04,0,0.06,0c5.64,0.03,11.38,1.58,17.01,3.11c1.47,0.4,2.98,0.8,4.47,1.18
			c5.96,1.5,11.89,2.62,18.44,3.82c-4.83,0.88-10.6,1.99-16.36,3.32c-2.17,0.5-4.35,1.08-6.45,1.64l-0.09,0.02
			c-4.75,1.27-9.66,2.58-14.56,3c-3.77,0.32-7-0.12-9.87-1.34c-0.98-0.42-1.94-0.97-2.96-1.57c-1.38-0.8-2.81-1.63-4.46-2.2
			c-1.41-0.49-2.93-0.73-4.56-0.73c-2.66,0-5.64,0.65-9,1.95c-1.37,0.53-3.31,1.32-5.4,2.37c0.41-4.28,0.4-8.63-0.01-12.97
			c1.22,0.6,2.59,1.23,4.21,1.92v0c3.07,1.31,7.7,2.97,12.34,2.29C72.48,237.88,74.58,236.67,76.62,235.51z M238.76,230.05
			c-2.68,1-6.13,2.01-8.95,0.93c-1.11-0.42-2.18-1.05-3.32-1.71c-1.16-0.67-2.36-1.37-3.7-1.92c-3.44-1.4-7.19-2.01-11.15-1.82
			c-6.02,0.29-11.83,1.84-17.47,3.34c-1.54,0.41-3.14,0.83-4.7,1.22c-5.76,1.43-11.7,2.55-17.79,3.66c-3.28,0.6-6.19,1.12-8.97,1.58
			c1.85-1.32,3.66-2.6,5.29-3.73c4.32-3.02,10.04-6.95,15.93-10.63c1.87-1.17,3.8-2.29,5.67-3.38c3.96-2.31,8.05-4.69,11.81-7.59
			c3.46-2.66,5.88-5.21,7.62-8.02c1.76-2.84,2.59-5.7,3.46-8.72l0.25-0.87c0.78-2.66,2.68-4.66,6.15-6.46
			c2.82-1.46,7.09-3.32,11.63-3.92c5.57,3.51,11.6,6.27,17.93,8.22c5.73,1.76,11.22,2.67,16.34,2.71
			c-10.15,9.98-14.65,24.16-16.49,32.18C245.89,226.95,242.85,228.52,238.76,230.05z M218.43,178.49L218.43,178.49
			c-2.88,1.2-7.04,3.2-9.77,6.68c-1.74,2.21-2.41,4.65-3.06,7.01c-0.15,0.54-0.3,1.11-0.47,1.65c-0.97,3.18-2.72,5.98-5.2,8.33
			c-3.98,3.77-8.97,6.64-13.79,9.42c-1.34,0.77-2.73,1.57-4.08,2.38c-5.24,3.14-10.21,6.52-15.66,10.29
			c2.8-4.04,6.08-8.89,9.21-13.9c1.18-1.89,2.31-3.84,3.4-5.73l0.05-0.08c2.38-4.11,4.84-8.37,7.85-12.03
			c2.41-2.94,4.94-4.97,7.74-6.21c1.11-0.49,2.34-0.82,3.63-1.17c1.65-0.44,3.37-0.9,5.03-1.75c3.35-1.71,6.08-4.99,8.35-10.03
			c0.93-2.06,1.68-3.97,2.29-5.79c2.75,3.31,5.83,6.38,9.2,9.15C221.28,177.32,219.61,177.99,218.43,178.49z M205.26,170.63
			c-1.16,2.49-2.83,5.5-5.46,6.72c-1.16,0.54-2.45,0.88-3.82,1.25c-1.44,0.39-2.93,0.79-4.4,1.45c-3.43,1.54-6.56,3.95-9.31,7.15
			c-3.71,4.33-6.58,9.26-9.36,14.05c-0.72,1.24-1.46,2.52-2.21,3.76c-3.07,5.12-6.41,10.02-10.15,15.44
			c-1.9,2.75-3.59,5.19-5.23,7.48c0.37-2.24,0.75-4.41,1.1-6.36c1.33-7.49,2.47-13.19,3.68-18.5c0.51-2.23,1.1-4.47,1.67-6.65
			c1.24-4.71,2.51-9.57,3.1-14.59c0.49-4.21,0.29-7.88-0.63-11.22c-0.76-2.76-2.07-5.11-3.36-7.43l-0.55-1
			c-1.34-2.45-1.4-5.24-0.17-9.04c0.97-3.01,2.69-7.31,5.42-10.88c6.15-1.4,12.14-3.58,17.81-6.51c5.59-2.88,10.33-6.23,14.15-9.99
			c-0.13,14.23,6.72,27.44,11.1,34.41C208.19,163.28,207.09,166.7,205.26,170.63z M154.67,147.98L154.67,147.98
			c-1.31,3.07-2.97,7.69-2.29,12.34c0.38,2.64,1.59,4.75,2.75,6.78c0.24,0.42,0.48,0.85,0.72,1.28c1.57,2.88,2.36,5.98,2.34,9.2
			c-0.03,5.64-1.58,11.38-3.08,16.93l-0.03,0.1c-0.39,1.46-0.8,2.97-1.17,4.45c-1.5,5.96-2.62,11.89-3.82,18.44
			c-0.88-4.83-1.99-10.59-3.32-16.36c-0.51-2.2-1.1-4.41-1.67-6.54c-1.27-4.75-2.58-9.67-3-14.56c-0.32-3.77,0.12-7,1.34-9.87
			c0.42-0.99,0.98-1.95,1.57-2.96c0.8-1.38,1.63-2.81,2.2-4.46c1.28-3.71,0.88-8.15-1.22-13.56c-0.54-1.38-1.33-3.33-2.38-5.42
			c4.49,0.42,8.71,0.39,13.01-0.03C156,144.94,155.38,146.31,154.67,147.98z M140.49,160.83c-0.42,1.11-1.05,2.18-1.71,3.32
			c-0.67,1.16-1.37,2.36-1.92,3.7c-1.4,3.44-2.01,7.19-1.82,11.15c0.29,6.02,1.84,11.83,3.33,17.45l0.04,0.13
			c0.4,1.51,0.81,3.07,1.19,4.59c1.43,5.76,2.55,11.7,3.66,17.79c0.6,3.28,1.12,6.19,1.58,8.98c-1.29-1.81-2.54-3.59-3.73-5.29
			c-3.01-4.32-6.94-10.03-10.63-15.93c-1.16-1.86-2.29-3.8-3.38-5.67c-2.31-3.96-4.69-8.05-7.59-11.81
			c-2.66-3.46-5.21-5.88-8.02-7.62c-2.84-1.76-5.7-2.59-8.72-3.46l-0.87-0.25c-2.66-0.78-4.66-2.68-6.46-6.15
			c-1.46-2.8-3.3-7.06-3.91-11.58c3.44-5.42,6.18-11.29,8.16-17.44c1.89-5.89,2.86-11.52,2.88-16.77
			c9.98,10.07,24.09,14.54,32.07,16.37c1.83,2.41,3.4,5.46,4.92,9.55C140.57,154.56,141.57,158.01,140.49,160.83z M101.69,185.04
			c0.54,0.15,1.11,0.3,1.65,0.47c3.18,0.97,5.98,2.72,8.33,5.2c3.77,3.99,6.64,8.97,9.42,13.79c0.77,1.34,1.57,2.73,2.38,4.08
			c3.14,5.24,6.52,10.21,10.29,15.66c-4.03-2.79-8.88-6.08-13.9-9.21c-1.93-1.2-3.9-2.34-5.81-3.45c-4.11-2.38-8.37-4.84-12.03-7.85
			c-2.94-2.41-4.97-4.94-6.21-7.74c-0.49-1.12-0.82-2.34-1.17-3.63c-0.44-1.66-0.9-3.37-1.75-5.03c-1.71-3.35-4.99-6.08-10.03-8.35
			c-2.06-0.93-3.97-1.68-5.79-2.28c3.29-2.72,6.35-5.81,9.15-9.19c0.62,1.86,1.29,3.52,1.78,4.71c1.2,2.88,3.2,7.03,6.68,9.77
			C96.9,183.72,99.33,184.39,101.69,185.04z M88.12,194.66c0.39,1.44,0.79,2.93,1.45,4.4c1.54,3.43,3.95,6.56,7.15,9.3
			c4.33,3.71,9.26,6.58,14.02,9.35c1.25,0.73,2.54,1.48,3.79,2.23c5.13,3.07,10.02,6.41,15.44,10.15c2.75,1.9,5.18,3.59,7.48,5.23
			c-2.24-0.37-4.41-0.75-6.36-1.1c-7.49-1.33-13.2-2.47-18.5-3.68c-2.2-0.5-4.44-1.09-6.64-1.67c-4.71-1.24-9.58-2.51-14.59-3.1
			c-1.48-0.17-2.89-0.26-4.25-0.26c-2.5,0-4.81,0.3-6.98,0.9c-2.76,0.76-5.11,2.06-7.38,3.33l-1.04,0.58
			c-2.45,1.34-5.24,1.4-9.04,0.17c-2.99-0.96-7.25-2.66-10.81-5.37c-1.44-6.41-3.72-12.63-6.78-18.5c-2.82-5.4-6.09-9.98-9.75-13.64
			c0,0,0,0,0.01,0c11.01,0,22.88-3.79,34.34-10.97c3.1,0.42,6.53,1.53,10.47,3.37c2.49,1.16,5.5,2.83,6.72,5.46
			C87.4,192,87.75,193.29,88.12,194.66z M51.82,256.01c2.42-1.84,5.47-3.41,9.57-4.94c2.68-1,6.13-2.01,8.95-0.93
			c1.1,0.42,2.18,1.05,3.32,1.71c1.16,0.67,2.36,1.37,3.7,1.92c3.44,1.4,7.19,2.01,11.15,1.82c6.02-0.29,11.83-1.84,17.47-3.34
			c1.54-0.41,3.14-0.83,4.7-1.22c5.75-1.42,11.69-2.55,17.79-3.66c3.28-0.6,6.19-1.12,8.97-1.58c-1.85,1.33-3.66,2.6-5.29,3.73
			c-4.32,3.01-10.03,6.95-15.93,10.63c-1.87,1.17-3.8,2.3-5.67,3.39c-3.96,2.31-8.05,4.69-11.81,7.59
			c-3.46,2.66-5.88,5.21-7.62,8.02c-1.76,2.84-2.59,5.7-3.46,8.72l-0.25,0.87c-0.78,2.66-2.68,4.66-6.15,6.46
			c-2.8,1.46-7.05,3.3-11.58,3.91c-5.42-3.44-11.29-6.18-17.44-8.16c-5.95-1.91-11.63-2.88-16.92-2.88c-0.04,0-0.08,0-0.12,0
			c3.1-3.13,5.93-6.89,8.43-11.19C47.28,270.59,50.11,263.38,51.82,256.01z M81.73,302.63c2.88-1.2,7.03-3.2,9.77-6.68
			c1.74-2.21,2.41-4.65,3.07-7.05c0.15-0.53,0.3-1.07,0.46-1.6c0.97-3.18,2.72-5.98,5.2-8.33c3.99-3.77,8.97-6.64,13.87-9.46
			c1.32-0.76,2.68-1.54,4-2.34c5.24-3.14,10.21-6.52,15.66-10.29c-2.79,4.03-6.08,8.88-9.21,13.9c-1.19,1.91-2.33,3.88-3.46,5.82
			c-2.38,4.11-4.84,8.36-7.85,12.02c-2.41,2.94-4.94,4.97-7.74,6.21c-1.12,0.49-2.34,0.82-3.63,1.17c-1.65,0.44-3.37,0.9-5.03,1.75
			c-3.35,1.71-6.08,4.99-8.35,10.03c-0.93,2.06-1.68,3.97-2.28,5.79c-2.72-3.29-5.81-6.35-9.19-9.14
			C78.88,303.79,80.55,303.12,81.73,302.63z M94.9,310.49c1.16-2.49,2.83-5.5,5.46-6.72c1.16-0.54,2.44-0.88,3.81-1.25
			c1.44-0.39,2.94-0.79,4.41-1.46c3.43-1.54,6.56-3.95,9.31-7.15c3.72-4.34,6.58-9.26,9.35-14.02c0.73-1.25,1.48-2.54,2.23-3.79
			c3.06-5.11,6.41-10.01,10.15-15.44c1.9-2.75,3.59-5.19,5.24-7.48c-0.37,2.24-0.75,4.41-1.1,6.36c-1.33,7.49-2.47,13.19-3.68,18.5
			c-0.5,2.2-1.09,4.43-1.67,6.65c-1.24,4.71-2.51,9.57-3.1,14.59c-0.49,4.21-0.29,7.88,0.63,11.22c0.76,2.76,2.07,5.11,3.33,7.38
			l0.58,1.04c1.34,2.45,1.4,5.24,0.17,9.04c-0.96,2.99-2.67,7.25-5.37,10.81c-6.41,1.44-12.63,3.72-18.5,6.78
			c-5.41,2.82-10,6.1-13.66,9.77c0-10.9-3.84-22.99-10.95-34.36C91.95,317.87,93.06,314.44,94.9,310.49z M145.49,333.14
			c1.31-3.07,2.97-7.69,2.29-12.34c-0.39-2.65-1.59-4.75-2.75-6.78c-0.24-0.42-0.48-0.85-0.72-1.28c-1.57-2.88-2.36-5.98-2.34-9.2
			c0.04-5.64,1.59-11.38,3.08-16.93c0.4-1.49,0.82-3.03,1.2-4.55c1.5-5.95,2.62-11.89,3.82-18.44c0.88,4.83,1.99,10.59,3.32,16.36
			c0.51,2.21,1.1,4.41,1.67,6.55c1.27,4.75,2.58,9.67,3,14.55c0.32,3.77-0.12,7-1.34,9.87c-0.42,0.99-0.98,1.94-1.57,2.97
			c-0.8,1.38-1.63,2.81-2.2,4.46c-1.28,3.71-0.88,8.15,1.22,13.56c0.53,1.37,1.32,3.31,2.37,5.4c-4.28-0.41-8.63-0.4-12.97,0.01
			C144.17,336.14,144.79,334.78,145.49,333.14z M159.66,320.29c0.42-1.1,1.04-2.17,1.72-3.33c0.67-1.16,1.36-2.35,1.91-3.69
			c1.4-3.44,2.01-7.19,1.82-11.15c-0.29-6.02-1.84-11.83-3.33-17.45c-0.41-1.55-0.84-3.15-1.23-4.72
			c-1.43-5.76-2.55-11.7-3.66-17.79c-0.6-3.28-1.12-6.19-1.58-8.97c1.32,1.85,2.59,3.66,3.73,5.29c3.01,4.32,6.95,10.03,10.63,15.93
			c1.16,1.86,2.29,3.79,3.38,5.67c2.31,3.96,4.69,8.05,7.59,11.81c2.66,3.46,5.21,5.88,8.02,7.62c2.84,1.76,5.7,2.59,8.72,3.46
			l0.87,0.25c2.66,0.78,4.66,2.68,6.46,6.15c1.46,2.82,3.32,7.09,3.92,11.63c-3.51,5.57-6.27,11.61-8.22,17.93
			c-1.79,5.83-2.7,11.41-2.71,16.62c-3.16-3.14-6.95-6.01-11.31-8.55c-6.28-3.65-13.48-6.48-20.85-8.19
			c-1.84-2.42-3.41-5.47-4.94-9.57C159.59,326.56,158.58,323.11,159.66,320.29z M198.46,296.08c-0.54-0.15-1.1-0.3-1.65-0.47
			c-3.18-0.97-5.98-2.72-8.33-5.2c-3.77-3.99-6.64-8.97-9.45-13.84c-0.76-1.33-1.55-2.7-2.35-4.03
			c-3.15-5.25-6.53-10.21-10.29-15.66c4.03,2.79,8.88,6.08,13.9,9.21c1.92,1.2,3.89,2.34,5.81,3.45c4.11,2.38,8.37,4.85,12.03,7.85
			c2.94,2.41,4.97,4.94,6.21,7.74c0.49,1.12,0.82,2.34,1.17,3.64c0.44,1.65,0.9,3.36,1.75,5.03c1.71,3.35,4.99,6.07,10.03,8.35
			c2.06,0.93,3.97,1.68,5.79,2.29c-3.31,2.75-6.38,5.83-9.15,9.2c-0.62-1.87-1.29-3.53-1.78-4.72c-1.2-2.88-3.2-7.03-6.68-9.77
			C203.26,297.4,200.82,296.73,198.46,296.08z M212.03,286.45c-0.39-1.44-0.79-2.93-1.45-4.4c-1.54-3.43-3.95-6.56-7.15-9.3
			c-4.33-3.71-9.25-6.57-14.02-9.35c-1.25-0.73-2.54-1.48-3.79-2.23c-5.13-3.07-10.03-6.42-15.44-10.15
			c-2.75-1.9-5.18-3.59-7.48-5.23c2.19,0.36,4.33,0.74,6.36,1.1c7.49,1.33,13.2,2.47,18.5,3.68c2.21,0.51,4.46,1.1,6.66,1.68
			c4.7,1.23,9.56,2.51,14.57,3.1c4.21,0.49,7.88,0.29,11.22-0.63c2.76-0.76,5.11-2.07,7.38-3.33l1.05-0.58
			c2.45-1.34,5.24-1.4,9.04-0.17c3.01,0.97,7.32,2.69,10.89,5.42c1.4,6.16,3.58,12.15,6.5,17.8c2.88,5.59,6.23,10.33,9.99,14.15
			c-14.25-0.17-27.44,6.72-34.41,11.1c-3.09-0.43-6.51-1.53-10.44-3.36c-2.49-1.16-5.5-2.83-6.72-5.46
			C212.75,289.12,212.4,287.83,212.03,286.45z"/>
		<path class="st0" d="M29.58,250.54h0.05l0.15,0c4.41-0.1,10.2-1.7,13.26-5.88c1.29-1.77,1.75-3.75,1.3-5.74
			c-0.53-2.36-2.31-4.53-4.9-5.94c-4.74-2.59-10.61-3.19-14.97-1.53c-4.38,1.66-6.95,5.82-6.4,10.35c0.77,6.25,6.59,8.61,11.32,8.73
			C29.46,250.53,29.52,250.54,29.58,250.54z M24.91,240.18c0.27-2.33,3.25-2.67,5.01-2.67c0.39,0,0.7,0.02,0.88,0.03
			c1.98,0.16,3.81,0.66,5.27,1.47c1.23,0.68,1.58,1.18,1.6,1.27c-0.01,0.08-0.16,0.79-2.3,1.93c-1.69,0.9-3.68,1.39-5.74,1.42
			c-1.82-0.03-3.43-0.6-4.2-1.48C24.97,241.64,24.81,241.01,24.91,240.18z"/>
		<path class="st0" d="M233.22,313.3c-2.66-0.68-5.29-0.37-7.22,0.84c-1.61,1.01-2.67,2.6-3.06,4.58
			c-1.04,5.22,1.98,10.63,5.14,13.94c0.04,0.05,0.09,0.1,0.13,0.13c0.05,0.05,0.1,0.09,0.13,0.13c2.64,2.51,5.58,3.83,8.48,3.83
			c1.9,0,3.71-0.56,5.24-1.62c4.14-2.87,5.38-8.11,3.02-12.75C242.96,318.22,238.19,314.57,233.22,313.3z M233.1,327.93
			c-2.13-2.2-3.98-5.61-3.39-7.86c0.05-0.17,0.09-0.23,0.1-0.23c0.65-0.26,2.69,0.26,4.7,1.46c0.25,0.15,6.1,3.7,4.72,6.9
			c-0.36,0.83-1.23,1.53-2.07,1.67C235.99,330.06,234.65,329.42,233.1,327.93z"/>
		<path class="st0" d="M57.84,162.43l0.12,0.12c3.5,3.35,7.94,5.35,11.9,5.35c0.13,0,0.26,0,0.39-0.01
			c2.31-0.08,4.32-0.99,5.68-2.56c1.39-1.61,2-3.8,1.72-6.18c-0.6-5.16-5.33-12.33-11.15-14.35c-3.62-1.26-7.02-0.44-9.82,2.36
			c-4.68,4.68-2.75,11.12,1.01,15.11C57.73,162.32,57.78,162.38,57.84,162.43z M60.75,153.6c0.11-0.9,0.8-1.8,1.69-2.19
			c0.27-0.12,0.6-0.22,1.02-0.22c0.61,0,1.4,0.23,2.43,0.98c1.72,1.26,2.97,3.19,3.43,3.96c1.2,2.03,1.73,4.07,1.47,4.71
			c0,0-0.05,0.04-0.23,0.09c-2.25,0.58-5.66-1.27-7.84-3.37C61.27,156.03,60.62,154.74,60.75,153.6z"/>
	</g>
	<g>
		<g>
			<path d="M325.9,169.03h15.72l3.81,13.05h10.55l-14.23-45.16c-0.51-1.87-1.9-2.9-3.92-2.9h-8.16c-2.02,0-3.41,1.03-3.91,2.87
				l-14.24,45.19h10.55L325.9,169.03z M328.45,160.26l4.27-14.74l0.88-3.25h0.35c0.14,0.55,0.39,1.53,0.84,3.27l4.27,14.72H328.45z"
				/>
			<path d="M385.69,182.89c5.82,0,10.69-0.6,14.47-1.78l0.74-0.23l-0.94-8.02l-0.95,0.13c-3.24,0.44-7.72,0.66-13.33,0.66
				c-3.51,0-5.82-1-7.06-3.06c-1.31-2.18-1.97-6.4-1.97-12.53c0-6.13,0.66-10.35,1.97-12.53c1.23-2.06,3.54-3.06,7.06-3.06
				c4.36,0,8.53,0.16,12.37,0.47l0.9,0.07l1.02-8.07l-0.8-0.21c-3.77-1-8.31-1.5-13.49-1.5c-7.19,0-12.34,1.92-15.33,5.71
				c-2.97,3.77-4.42,10.03-4.42,19.12c0,9.09,1.44,15.35,4.42,19.12C373.35,180.96,378.51,182.89,385.69,182.89z"/>
			<path d="M432.41,182.89c5.82,0,10.69-0.6,14.47-1.78l0.74-0.23l-0.94-8.02l-0.95,0.13c-3.24,0.44-7.72,0.66-13.33,0.66
				c-3.52,0-5.82-1-7.06-3.06c-1.31-2.18-1.97-6.4-1.97-12.53c0-6.13,0.66-10.35,1.97-12.53c1.23-2.06,3.54-3.06,7.06-3.06
				c4.36,0,8.53,0.16,12.37,0.47l0.9,0.07l1.02-8.07l-0.8-0.21c-3.77-1-8.31-1.5-13.49-1.5c-7.19,0-12.35,1.92-15.33,5.71
				c-2.97,3.78-4.42,10.03-4.42,19.12s1.45,15.35,4.42,19.12C420.06,180.96,425.22,182.89,432.41,182.89z"/>
			<path d="M479.32,182.95c7.4,0,12.66-1.85,15.62-5.5c2.96-3.64,4.39-9.99,4.39-19.4c0-9.41-1.44-15.75-4.39-19.4
				c-2.96-3.65-8.22-5.5-15.62-5.5c-7.36,0-12.59,1.85-15.55,5.5c-2.96,3.64-4.39,9.99-4.39,19.4c0,9.41,1.44,15.76,4.39,19.4
				C466.73,181.1,471.96,182.95,479.32,182.95z M472.13,145.32c1.28-2.11,3.63-3.13,7.19-3.13c3.61,0,5.98,1.02,7.26,3.13
				c1.35,2.23,2.04,6.51,2.04,12.73c0,6.22-0.69,10.5-2.04,12.73c-1.28,2.11-3.65,3.13-7.26,3.13c-3.56,0-5.92-1.02-7.19-3.13
				c-1.35-2.22-2.04-6.51-2.04-12.73C470.09,151.83,470.78,147.55,472.13,145.32z"/>
			<polygon points="549.11,192.19 556.76,192.19 556.76,173.71 551.14,173.71 551.14,134.02 540.82,134.02 540.82,173.71 
				525.17,173.71 525.17,134.02 514.92,134.02 514.92,182.08 548.45,182.08 			"/>
			<path d="M598.39,151.17c0.22-0.37,0.45-0.78,0.68-1.23c-0.01,0.32-0.02,0.64-0.02,0.95v31.19h9.98v-48.06h-10.05l-17.68,30.8
				c-0.26,0.47-0.5,0.92-0.74,1.38c0.02-0.45,0.02-0.92,0.02-1.39v-30.79h-9.91v48.06h9.99L598.39,151.17z"/>
			<path d="M635.43,169.03h15.72l3.81,13.05h10.55l-14.23-45.16c-0.51-1.87-1.9-2.9-3.92-2.9h-8.16c-2.02,0-3.41,1.03-3.91,2.87
				l-14.24,45.19h10.56L635.43,169.03z M637.98,160.26l4.27-14.74l0.88-3.25h0.35c0.14,0.55,0.39,1.53,0.84,3.27l4.27,14.72H637.98z
				"/>
			<polygon points="713.76,134.02 703.45,134.02 703.45,173.71 687.8,173.71 687.8,134.02 677.55,134.02 677.55,182.08 
				711.07,182.08 711.74,192.19 719.39,192.19 719.39,173.71 713.76,173.71 			"/>
			<path d="M743.92,164.82c-0.26,0.47-0.51,0.93-0.74,1.38c0.02-0.45,0.02-0.92,0.02-1.39v-30.79h-9.91v48.06h9.98l17.73-30.91
				c0.22-0.37,0.45-0.78,0.68-1.23c-0.01,0.32-0.02,0.63-0.02,0.94v31.19h9.98v-48.06H761.6L743.92,164.82z"/>
			<path d="M821.27,134.03c-3.98-0.4-9.64-0.61-16.83-0.61c-5.87,0-9.98,1.09-12.59,3.34c-2.62,2.25-3.94,5.99-3.94,11.11
				c-0.05,3.93,0.67,7,2.14,9.11c1.09,1.57,2.69,2.7,4.78,3.37c-2.4,1.2-4.01,3.35-4.82,6.42l-4.21,15.31h10.8l3.72-14.54
				c0.69-2.41,2.1-3.53,4.46-3.53l7.01-0.06v18.13h10.32v-47.97L821.27,134.03z M811.8,142.19v13.04h-7.16
				c-2.48,0-4.2-0.49-5.1-1.47c-0.92-1-1.39-2.8-1.39-5.34c0.05-3.16,0.74-4.47,1.32-5.02c0.58-0.55,1.94-1.21,5.17-1.21H811.8z"/>
		</g>
		<g>
			<g>
				<path d="M362.91,218.5c-0.16-2.68-1.69-4.16-4.29-4.16h-8.57c-2.31,0-3.86,1.21-4.46,3.51l-6.57,25
					c-0.07,0.32-0.39,1.76-0.95,4.32c-0.32-1.63-0.64-3.06-0.96-4.28l-6.62-25.01c-0.55-2.31-2.05-3.53-4.33-3.53h-8.63
					c-2.61,0-4.11,1.49-4.22,4.18l-1.78,43.88h10.05l1.35-37.97l7.47,28.57c0.6,2.3,2.17,3.51,4.52,3.51h6.36
					c2.31,0,3.85-1.21,4.46-3.52l7.41-28.59l1.55,38h10.05L362.91,218.5z"/>
				<path d="M414.93,257.76c2.96-3.64,4.39-9.99,4.39-19.4c0-9.41-1.44-15.76-4.39-19.4c-2.96-3.65-8.22-5.5-15.62-5.5
					c-7.36,0-12.59,1.85-15.56,5.5c-2.96,3.64-4.39,9.99-4.39,19.4c0,9.41,1.44,15.76,4.39,19.4c2.96,3.65,8.19,5.5,15.56,5.5
					C406.72,263.26,411.97,261.41,414.93,257.76z M392.12,225.63c1.28-2.11,3.63-3.13,7.19-3.13c3.61,0,5.98,1.02,7.26,3.13
					c1.35,2.23,2.04,6.51,2.04,12.73c0,6.22-0.69,10.5-2.04,12.73c-1.28,2.1-3.65,3.13-7.26,3.13c-3.56,0-5.92-1.02-7.19-3.13
					c-1.35-2.22-2.04-6.51-2.04-12.73C390.08,232.14,390.77,227.86,392.12,225.63z"/>
				<path d="M434.76,254.02h-5.07v18.48h7.64l0.74-10.11h29.97l0.74,10.11h7.64v-18.48h-5.89v-39.69h-18.41
					c-3.35,0-6.08,0.94-8.1,2.79c-2.03,1.86-3.16,4.39-3.35,7.52C439.81,236.7,437.82,246.58,434.76,254.02z M444.82,254.02
					c1.55-3.47,2.74-7.23,3.56-11.18c0.92-4.44,1.66-10.07,2.19-16.74c0.09-1.69,0.5-2.41,0.82-2.72c0.46-0.44,1.35-0.67,2.59-0.67
					h6.29v31.31H444.82z"/>
				<path d="M521.9,261.91l-0.43-8.16h-19.03c-0.63,0-1.45-0.09-1.83-0.54c-0.19-0.23-0.51-0.84-0.51-2.4v-9.37h18.87v-8.31h-18.87
					v-7.16c0-1.56,0.32-2.18,0.51-2.4c0.38-0.44,1.2-0.54,1.83-0.54h19.03l0.43-8.22l-0.9-0.08c-4.07-0.36-10.94-0.54-20.43-0.54
					c-3.26,0-5.88,0.87-7.79,2.58c-1.94,1.74-2.92,4.14-2.92,7.13v28.91c0,2.99,0.98,5.38,2.92,7.13c1.91,1.71,4.53,2.58,7.79,2.58
					c9.49,0,16.36-0.18,20.43-0.54L521.9,261.91z"/>
				<path d="M572.92,262.39v-48.06h-18.88c-6.78,0-10.67,3.54-11.25,10.24c-0.53,7.26-1.07,12.67-1.6,16.09
					c-0.52,3.38-1.29,6.36-2.29,8.88c-0.51,1.34-1.24,2.36-2.15,3.02c-0.96,0.7-2.25,1.25-3.81,1.62l-0.8,0.19l0.83,8.09l0.78,0.06
					c0.5,0.04,0.98,0.06,1.46,0.06c6.14,0,10.63-3.41,13.34-10.15c1.14-2.78,1.99-6.02,2.53-9.62c0.53-3.53,1.12-9.17,1.75-16.75
					c0.22-2.33,1.32-3.36,3.55-3.36h6.22v39.69H572.92z"/>
				<path d="M621.82,261.91l-0.43-8.16h-19.03c-0.63,0-1.45-0.09-1.83-0.54c-0.19-0.23-0.51-0.84-0.51-2.4v-9.37h18.87v-8.31h-18.87
					v-7.16c0-1.56,0.32-2.18,0.51-2.4c0.38-0.44,1.2-0.54,1.83-0.54h19.03l0.43-8.22l-0.9-0.08c-4.07-0.36-10.94-0.54-20.43-0.54
					c-3.26,0-5.88,0.87-7.79,2.58c-1.94,1.74-2.92,4.14-2.92,7.13v28.91c0,2.99,0.98,5.38,2.92,7.13c1.91,1.71,4.53,2.58,7.79,2.58
					c9.49,0,16.36-0.18,20.43-0.54L621.82,261.91z"/>
				<path d="M647.52,245.13c-0.26,0.47-0.51,0.93-0.74,1.38c0.02-0.46,0.02-0.92,0.02-1.39v-30.79h-9.91v48.06h9.98l17.73-30.91
					c0.22-0.37,0.45-0.78,0.68-1.23c-0.01,0.32-0.02,0.63-0.02,0.94v31.19h9.98v-48.06H665.2L647.52,245.13z"/>
			</g>
			<path d="M660.18,202.04c0.04,1.73-0.3,2.99-1.03,3.73c-0.61,0.63-1.52,0.93-2.78,0.93c-1.33,0-2.28-0.32-2.91-0.97
				c-0.72-0.74-1.07-1.98-1.03-3.69l0.02-0.96h-7.56l-0.09,0.84c-0.35,3.06,0.59,5.68,2.79,7.78c2.16,2.06,5.11,3.11,8.78,3.11
				c3.63,0,6.54-1.05,8.66-3.11c2.15-2.1,3.08-4.71,2.79-7.76l-0.08-0.85h-7.57L660.18,202.04z"/>
		</g>
		<g>
			<path d="M332.38,320.74h-1.53c-0.19,0-0.25-0.04-0.25-0.04c0,0-0.02-0.03-0.06-0.18l-8.44-25.88h-10.57l10.47,30.28
				c0.97,2.96,3.13,4.53,6.25,4.53h1.07l-0.14,0.39c-0.38,0.98-0.7,1.75-0.95,2.29c-0.19,0.42-0.49,0.81-0.88,1.17
				c-0.54,0.49-0.87,0.71-1.05,0.8c-0.06,0.03-0.39,0.18-1.58,0.29c-0.91,0.09-1.72,0.11-2.43,0.07c-0.76-0.04-2.01-0.11-3.75-0.2
				l-0.85-0.04l-1.2,7.77l0.82,0.22c2.75,0.73,5.45,1.1,8.08,1.1c0.66,0,1.31-0.02,1.96-0.07c3.1-0.29,5.6-1.55,7.43-3.75
				c1.74-2.09,3.31-5.16,4.68-9.13l12.27-35.71h-10.63L332.38,320.74z"/>
			<path d="M398.81,337.52c-2.59-7.77-4.7-12.89-6.46-15.64c-1.29-2.02-3.14-3.45-5.51-4.27c2.82-1.14,5.17-3.66,6.97-7.48
				c0.92-1.84,2.6-6.5,5.14-14.25l0.4-1.23h-10.53l-0.18,0.71c-0.04,0.17-0.11,0.41-0.19,0.68c-0.71,2.23-1.4,4.33-2.07,6.31
				c-0.66,1.94-1.32,3.62-1.97,4.98c-0.63,1.34-1.35,2.51-2.13,3.5c-0.73,0.93-1.58,1.63-2.54,2.07c-0.96,0.45-2.08,0.68-3.31,0.68
				h-2.79c0.21-1.62,0.32-3.1,0.32-4.41v-14.53h-10.25v48.06h10.25v-17.2c0-1.03-0.1-2.24-0.3-3.61h2.78c0.98,0,1.84,0.1,2.55,0.3
				c2.09,0.59,3.9,2.37,5.36,5.25c0.87,1.82,2.63,6.74,5.24,14.62l0.21,0.64h10.75l-0.41-1.24
				C399.83,340.53,399.38,339.21,398.81,337.52z"/>
			<path d="M431.51,294.04c-7.19,0-12.85,0.2-16.83,0.61l-0.85,0.09v47.97h10.31v-17.49c2.66,0.28,5.47,0.42,8.36,0.42
				c5.88,0,9.9-1.1,12.26-3.37c2.38-2.28,3.54-6.34,3.54-12.42c0-6.09-1.22-10.16-3.72-12.44
				C442.11,295.14,437.83,294.04,431.51,294.04z M424.15,302.82h7.16c2.63,0,4.48,0.47,5.35,1.36c0.61,0.62,1.34,2.11,1.34,5.67
				c0,3.56-0.73,5.04-1.34,5.67c-0.87,0.89-2.73,1.38-5.35,1.42h-7.16V302.82z"/>
			<path d="M481.5,294.64h-8.16c-2.02,0-3.41,1.03-3.91,2.87l-14.24,45.19h10.56l3.81-13.05h15.72l3.81,13.05h10.55l-14.23-45.16
				C484.91,295.67,483.52,294.64,481.5,294.64z M482.73,320.88h-10.61l4.27-14.74l0.88-3.25h0.35c0.14,0.55,0.39,1.53,0.84,3.27
				L482.73,320.88z"/>
			<path d="M522.31,325.44c-0.26,0.47-0.51,0.93-0.74,1.38c0.02-0.46,0.02-0.92,0.02-1.39v-30.79h-9.91v48.06h9.98l17.73-30.91
				c0.22-0.37,0.45-0.78,0.68-1.23c-0.01,0.32-0.02,0.63-0.02,0.94v31.19h9.98v-48.06h-10.05L522.31,325.44z"/>
			<polygon points="593.87,312.78 577.54,312.78 577.54,294.64 567.3,294.64 567.3,342.7 577.54,342.7 577.54,321.56 593.87,321.56 
				593.87,342.7 604.18,342.7 604.18,294.64 593.87,294.64 			"/>
			<rect x="661.06" y="294.64" width="10.25" height="48.06"/>
			<path d="M638.64,312.31h-6.96v-17.67h-10.25v48.06l1.06,0c4.07,0.36,9.97,0.54,17.55,0.54c5.65,0,9.57-1.09,11.98-3.33
				c2.43-2.26,3.61-6.18,3.61-12c0-5.78-1.29-9.88-3.82-12.18C649.28,313.43,644.96,312.31,638.64,312.31z M631.69,320.69h6.96
				c3.51,0,4.9,0.75,5.44,1.38c0.57,0.66,1.25,2.18,1.25,5.71c0,3.5-0.64,4.89-1.17,5.43c-0.53,0.54-1.92,1.19-5.51,1.19l-6.96-0.06
				V320.69z"/>
		</g>
	</g>
</g>
</svg>
